<svg width="28" height="28" viewBox="0 0 28 28" fill="none" xmlns="http://www.w3.org/2000/svg">
<g id="icon">
<path id="Path 95" d="M3.11111 24.8889H26.4444C27.3036 24.8889 28 25.5853 28 26.4444C28 27.3036 27.3036 28 26.4444 28H1.55556C0.696446 28 0 27.3036 0 26.4444V1.55556C0 0.696446 0.696446 0 1.55556 0C2.41467 0 3.11111 0.696446 3.11111 1.55556V24.8889Z" fill="#FF6C6C"/>
<path id="Path 97" opacity="0.5" d="M8.91256 5.93611C8.32498 5.30936 7.34057 5.2776 6.71382 5.86518C6.08707 6.45276 6.05531 7.43717 6.64289 8.06393L12.4762 14.2861C13.0445 14.8923 13.9888 14.9449 14.6208 14.4055L19.2248 10.4768L25.2235 18.075C25.7558 18.7493 26.734 18.8644 27.4083 18.3321C28.0826 17.7997 28.1977 16.8215 27.6653 16.1472L20.6653 7.28057C20.1186 6.58801 19.1059 6.48841 18.4347 7.06117L13.7306 11.0753L8.91256 5.93611Z" fill="#FF6C6C"/>
</g>
</svg>
