<svg width="30" height="30" viewBox="0 0 30 30" fill="none" xmlns="http://www.w3.org/2000/svg">
<g id="cancel-order (1) 1">
<path id="Vector" d="M27.1172 5.49914C27.1172 5.49328 27.1114 5.48449 27.1114 5.47863C27.1114 5.45812 27.1085 5.43761 27.1055 5.4171C27.0792 4.41515 26.5987 3.49523 25.8018 2.88878C25.2452 2.46691 24.5538 2.25597 23.8594 2.25304C23.4171 2.25304 22.9717 2.25304 22.5294 2.25304H17.959V9.16125C17.959 9.66222 17.4141 9.96105 16.9835 9.72375C16.8633 9.65636 16.7462 9.58898 16.6231 9.5216C15.8702 9.10265 15.1143 8.67492 14.3614 8.26183C14.3467 8.27062 14.335 8.27648 14.3204 8.28527C13.4561 8.76574 12.5948 9.24328 11.7305 9.72082C11.3028 9.95812 10.7491 9.65929 10.7491 9.15832V2.25597H5.68365C5.18268 2.25597 4.66998 2.22668 4.17486 2.32628C3.22857 2.51671 2.37311 3.17589 1.95123 4.04308C1.71979 4.52062 1.61139 5.02746 1.61139 5.55773V21.1847C1.61139 21.6388 1.58209 22.1105 1.63482 22.5646C1.75201 23.5607 2.30865 24.4484 3.17291 24.9728C3.69732 25.2921 4.30084 25.4298 4.91314 25.4298H16.8458C16.7696 25.3126 16.6905 25.1544 16.6231 25.0079C16.5587 24.8644 16.4942 24.7325 16.4356 24.5861C16.1426 23.7423 15.9727 22.837 16.0137 21.92C16.0313 21.5568 16.0782 21.1964 16.1514 20.8419C16.1749 20.7247 16.2042 20.6046 16.2335 20.4874C16.2715 20.3409 16.3126 20.1945 16.3624 20.0509C16.3712 20.0275 16.377 20.004 16.3858 19.9777C16.3946 19.9484 16.4063 19.922 16.4151 19.8927C16.421 19.8722 16.4297 19.8546 16.4356 19.8341C16.4444 19.8107 16.4532 19.7872 16.462 19.7638C16.462 19.7609 16.462 19.7579 16.4649 19.755C16.4649 19.7521 16.4678 19.7491 16.4678 19.7462C16.4737 19.7286 16.4825 19.7111 16.4883 19.6935C16.4883 19.6935 16.4913 19.6935 16.4913 19.6905C16.4913 19.6788 16.4971 19.6671 16.503 19.6554V19.6525C16.5059 19.6466 16.5001 19.6407 16.5001 19.6349L16.4913 19.6319H16.5001C16.5001 19.629 16.5059 19.6232 16.5088 19.6202H16.5118C16.5206 19.5968 16.5323 19.5734 16.5411 19.5499C16.5499 19.5265 16.5616 19.503 16.5704 19.4796C16.5821 19.4503 16.5967 19.421 16.6085 19.3946H16.6114C16.6378 19.3361 16.6641 19.2804 16.6934 19.2247C16.7227 19.1954 16.7169 19.1691 16.7315 19.1398C16.7432 19.1163 16.752 19.0958 16.7637 19.0724C16.7755 19.0489 16.7872 19.0284 16.7989 19.005C16.8106 18.9816 16.8223 18.9611 16.834 18.9376C16.8809 18.8497 16.9307 18.7618 16.9835 18.6739C16.9893 18.6622 16.9952 18.6534 17.004 18.6417C17.0098 18.63 17.0157 18.6212 17.0245 18.6095C17.0274 18.6066 17.0274 18.6036 17.0303 18.6007C17.0333 18.5978 17.0333 18.5948 17.0362 18.5919C17.0508 18.5685 17.0655 18.545 17.0801 18.5216C17.0831 18.5157 17.086 18.5128 17.0889 18.5069C17.0919 18.5011 17.0977 18.4923 17.1036 18.4864C17.1036 18.4835 17.1065 18.4835 17.1065 18.4806C17.1182 18.4659 17.127 18.4484 17.1387 18.4337C17.1417 18.4278 17.1475 18.422 17.1505 18.4161C17.1651 18.3956 17.1797 18.3751 17.1944 18.3546C17.209 18.3341 17.2237 18.3136 17.2383 18.2931C17.2501 18.2784 17.2618 18.2609 17.2735 18.2433C17.2852 18.2286 17.2969 18.211 17.3087 18.1964C17.3087 18.1935 17.3116 18.1935 17.3116 18.1935C17.3116 18.1905 17.3145 18.1905 17.3145 18.1876C17.3174 18.1847 17.3174 18.1818 17.3204 18.1788C17.3233 18.1759 17.3262 18.173 17.3292 18.1671C17.3614 18.1261 17.3936 18.0821 17.4258 18.0411L17.4288 18.0382C17.4317 18.0353 17.4346 18.0294 17.4376 18.0265C17.4434 18.0177 17.4493 18.0118 17.4551 18.003C17.5049 17.9386 17.5547 17.8771 17.6075 17.8155C17.6426 17.7745 17.6749 17.7364 17.71 17.6954C17.7129 17.6925 17.7129 17.6896 17.7159 17.6896C17.7393 17.6632 17.7598 17.6398 17.7833 17.6134C17.7862 17.6105 17.7862 17.6075 17.7891 17.6075C17.7921 17.6046 17.795 17.6017 17.795 17.5987C17.8038 17.59 17.8155 17.5812 17.8243 17.5724C17.8272 17.5694 17.8331 17.5694 17.8331 17.5665L17.836 17.5636C17.8506 17.5489 17.8594 17.5372 17.8712 17.5226C17.8712 17.5226 17.8712 17.5226 17.8712 17.5196C17.8712 17.5167 17.877 17.5109 17.8799 17.5079C17.8887 17.4991 17.9004 17.4903 17.9004 17.4816L17.9092 17.4845C17.9092 17.4845 17.9092 17.4845 17.9092 17.4816C17.9063 17.4816 17.9034 17.4816 17.9034 17.4786C17.9063 17.4757 17.9122 17.4728 17.9122 17.4728C17.9444 17.4405 17.9766 17.4054 18.0089 17.3732C18.0352 17.3468 18.0616 17.3204 18.0909 17.2941C18.0909 17.2941 18.0938 17.2941 18.0938 17.2911C18.1319 17.253 18.1729 17.215 18.2139 17.1769C18.2256 17.1652 18.2374 17.1534 18.252 17.1417C18.2696 17.1241 18.2901 17.1066 18.3077 17.0919C18.3106 17.089 18.3106 17.089 18.3135 17.089C18.334 17.0714 18.3516 17.0538 18.3721 17.0362C18.3956 17.0157 18.419 16.9952 18.4424 16.9777C18.9639 16.5353 19.5499 16.172 20.1856 15.9025C20.2852 15.8614 20.3878 15.8234 20.4903 15.7882C20.5255 15.7765 20.5577 15.756 20.5928 15.756C20.6456 15.7267 20.7012 15.715 20.754 15.6974C20.754 15.6974 20.754 15.6944 20.7569 15.6944C20.8096 15.6769 20.8653 15.6593 20.921 15.6446C20.959 15.6329 20.9971 15.6212 21.0352 15.6124C21.0557 15.6066 21.0762 15.6007 21.0938 15.5948C21.1143 15.589 21.1348 15.5861 21.1524 15.5802C21.4366 15.5069 21.7237 15.4484 22.0108 15.4132C22.043 15.4103 22.0753 15.4044 22.1075 15.4015C22.1338 15.3986 22.1602 15.3956 22.1895 15.3927C22.2159 15.3898 22.2422 15.3868 22.2686 15.3839C22.2979 15.381 22.3243 15.378 22.3536 15.3751C22.3975 15.3722 22.4385 15.3605 22.4825 15.3575C22.5264 15.3546 22.5674 15.3458 22.6114 15.3458H22.7315L22.7344 15.3517C22.7374 15.3517 22.7432 15.3546 22.7462 15.3546C22.7813 15.3546 22.8165 15.3575 22.8516 15.3575C22.8751 15.3575 22.9014 15.3575 22.9249 15.3575C22.9542 15.3575 22.9805 15.3575 23.0069 15.3575C23.0333 15.3575 23.0596 15.3575 23.0889 15.3605C23.1153 15.3605 23.1417 15.3634 23.171 15.3634C23.3292 15.3693 23.4903 15.381 23.6485 15.3986C23.7774 15.4132 23.9063 15.4308 24.0323 15.4513C24.085 15.4601 24.1348 15.4689 24.1876 15.4806C24.2637 15.4952 24.3399 15.5099 24.4131 15.5275C24.6475 15.5802 24.879 15.6505 25.1046 15.7296C25.3975 15.8351 25.6817 15.9581 25.9571 16.0929C26.0567 16.1427 26.1563 16.1896 26.2559 16.2482C26.2559 16.2482 26.2559 16.2511 26.2588 16.2511C26.2706 16.2599 26.2823 16.2716 26.294 16.2804C26.3087 16.2921 26.3233 16.3009 26.3379 16.3068C26.3409 16.3068 26.3409 16.3097 26.3438 16.3097H26.3467C26.3497 16.3097 26.3555 16.3097 26.3585 16.3097C26.3614 16.3097 26.3643 16.3068 26.3643 16.3068C26.3848 16.3068 26.4053 16.3419 26.4258 16.3566C26.4317 16.3595 26.4376 16.3653 26.4434 16.3683C26.4522 16.3741 26.461 16.38 26.4669 16.3859C26.4815 16.3946 26.4932 16.4034 26.5079 16.4122C26.5225 16.421 26.5372 16.4298 26.5518 16.4386C26.5547 16.4386 26.5547 16.4415 26.5577 16.4415C26.6016 16.4679 26.6514 16.4943 26.6954 16.5236C26.8448 16.6261 26.9854 16.7374 27.1319 16.8517V6.96398C27.129 6.47765 27.1348 5.98546 27.1172 5.49914ZM5.26178 16.963H8.16217C8.52545 16.963 8.79791 17.256 8.81256 17.6075C8.82721 17.9591 8.50201 18.2521 8.16217 18.2521H5.26178C4.8985 18.2521 4.62604 17.9591 4.61139 17.6075C4.59674 17.256 4.92193 16.963 5.26178 16.963ZM12.6651 21.5333H5.26178C4.8985 21.5333 4.62604 21.2403 4.61139 20.8888C4.59674 20.5372 4.92193 20.2443 5.26178 20.2443H12.6622C13.0254 20.2443 13.2979 20.5372 13.3126 20.8888C13.3301 21.2403 13.0049 21.5333 12.6651 21.5333Z" fill="#A9A9A9"/>
<path id="Vector_2" d="M28.3769 21.7062C28.3711 21.6241 28.3623 21.5421 28.3535 21.4601C28.3535 21.4571 28.3535 21.4542 28.3535 21.4513V21.4483C28.3535 21.4454 28.3535 21.4425 28.3506 21.4396C28.3447 21.4073 28.3418 21.3751 28.3359 21.3429C28.2802 21.0118 28.1982 20.6837 28.0869 20.3644C28.0547 20.2735 28.0224 20.1856 27.9873 20.0978C27.9814 20.086 27.9726 20.0655 27.9638 20.045C27.9726 20.089 27.9551 20.0978 27.9521 20.0128C27.9521 20.0128 27.9521 20.0128 27.9521 20.0157C27.9521 20.0245 27.958 20.0333 27.9638 20.045C27.9609 20.0362 27.9609 20.0245 27.9551 20.0157L27.9521 20.0128H27.9492V20.0099C27.9492 20.0099 27.9521 20.0099 27.9521 20.0128C27.8906 19.8692 27.8174 19.7286 27.7441 19.5909C27.6064 19.336 27.4511 19.0548 27.2607 18.8292C27.2607 18.8263 27.2578 18.8263 27.2578 18.8233C27.2549 18.8204 27.2519 18.8146 27.249 18.8116C27.2343 18.797 27.2197 18.7794 27.2109 18.7677C27.1816 18.7325 27.1523 18.6944 27.1201 18.6593C27.0703 18.6007 27.0176 18.5421 26.9648 18.4835C26.8594 18.3692 26.751 18.2579 26.6367 18.1524C26.5195 18.044 26.3994 17.9415 26.2763 17.839C26.2646 17.8302 26.2558 17.8243 26.25 17.8155C26.2441 17.8097 26.2353 17.8038 26.2236 17.795C26.1914 17.7716 26.1621 17.7481 26.1299 17.7247C26.0537 17.669 25.9746 17.6163 25.8926 17.5636C25.7343 17.461 25.5732 17.3673 25.4092 17.2794C25.333 17.2384 25.2568 17.2003 25.1806 17.1651C25.1484 17.1505 25.1191 17.1358 25.0869 17.1212C25.0781 17.1183 25.0605 17.1095 25.04 17.0978C25.0342 17.0948 25.0283 17.0919 25.0224 17.089C24.7236 16.9454 24.3808 16.8605 24.0615 16.7872C23.959 16.7638 23.8564 16.7433 23.751 16.7257C23.6982 16.7169 23.6455 16.7081 23.5927 16.6993C23.581 16.6964 23.5576 16.6935 23.5429 16.6876H23.54C23.3877 16.6642 23.2207 16.6642 23.0683 16.6583C22.7578 16.6466 22.4472 16.6612 22.1396 16.6935C22.1279 16.6935 22.1191 16.6964 22.1133 16.6964C22.0898 16.6993 22.0635 16.7052 22.04 16.7081C21.9697 16.7198 21.9023 16.7315 21.832 16.7462C21.6943 16.7726 21.5595 16.8048 21.4248 16.8399C21.2783 16.878 21.1318 16.9249 20.9883 16.9747C20.9238 16.9982 20.8594 17.0216 20.7949 17.045C20.7685 17.0538 20.7451 17.0655 20.7217 17.0743C20.6836 17.1153 20.5693 17.1417 20.5166 17.1651C20.4609 17.1915 20.4052 17.2179 20.3525 17.2472C20.2324 17.3087 20.1123 17.3761 19.9951 17.4464C19.8662 17.5226 19.7431 17.6046 19.6201 17.6896C19.5761 17.7218 19.5322 17.7511 19.4883 17.7833C19.4736 17.8067 19.4179 17.839 19.3945 17.8565C19.1806 18.0323 18.9785 18.2198 18.7881 18.422C18.6914 18.5245 18.5976 18.6329 18.5068 18.7413C18.4892 18.7618 18.4599 18.8175 18.4336 18.8351C18.4013 18.879 18.3691 18.92 18.3398 18.964C18.1758 19.1983 18.0293 19.4415 17.8974 19.6935C17.8652 19.755 17.8359 19.8165 17.8066 19.878C17.7832 19.9249 17.7627 20.0304 17.7246 20.0626C17.7158 20.086 17.7041 20.1124 17.6953 20.1358C17.6719 20.2003 17.6455 20.2648 17.625 20.3292C17.5283 20.6046 17.4521 20.8858 17.3965 21.173C17.3818 21.2491 17.3672 21.3253 17.3554 21.4015C17.3525 21.4161 17.3525 21.4337 17.3496 21.4513C17.3613 21.4073 17.3789 21.3898 17.3408 21.4981C17.3261 21.6271 17.3144 21.756 17.3086 21.8878C17.291 22.2364 17.3027 22.5851 17.3437 22.9308V22.9337C17.3467 22.9513 17.3584 23.0216 17.3613 23.0421C17.3701 23.0978 17.3818 23.1534 17.3906 23.2091C17.4082 23.2999 17.4287 23.3907 17.4492 23.4815C17.4902 23.6515 17.54 23.8214 17.5957 23.9855C17.6279 24.0821 17.6631 24.1759 17.6982 24.2696C17.7011 24.2784 17.7363 24.3634 17.7392 24.3722C17.748 24.3927 17.7568 24.4132 17.7685 24.4366C17.8418 24.5978 17.9238 24.756 18.0117 24.9112C18.0908 25.0519 18.1758 25.1896 18.2666 25.3243C18.3076 25.3858 18.3486 25.4444 18.3926 25.506C18.4101 25.5294 18.4277 25.5528 18.4453 25.5763C18.4453 25.5792 18.4482 25.5792 18.4482 25.5792L18.4511 25.5821C18.6386 25.8107 18.832 26.0274 19.0459 26.2325C19.1631 26.3439 19.2861 26.4493 19.4121 26.5519C19.415 26.5548 19.4209 26.5606 19.4297 26.5665L19.4326 26.5694C19.4326 26.5694 19.4355 26.5694 19.4355 26.5724L19.4385 26.5753L19.4414 26.5782C19.459 26.5929 19.4853 26.6105 19.4883 26.6134C19.5469 26.6573 19.6084 26.7013 19.667 26.7423C19.916 26.9122 20.1797 27.0675 20.4521 27.1993C20.5254 27.2345 20.6015 27.2696 20.6748 27.3019C20.6777 27.3048 20.6806 27.3048 20.6836 27.3048C20.7099 27.3165 20.7392 27.3282 20.7656 27.337C20.9062 27.3927 21.0469 27.4396 21.1904 27.4835C21.3486 27.5333 21.5097 27.5743 21.6738 27.6095C21.8086 27.6388 21.9902 27.7032 22.125 27.6915C22.0986 27.6886 22.0722 27.6827 22.0429 27.6798C22.0722 27.6827 22.1045 27.6886 22.1338 27.6915C22.1719 27.6944 22.2099 27.7003 22.248 27.7032C22.3183 27.7091 22.3886 27.7149 22.459 27.7179C22.6142 27.7267 22.7695 27.7296 22.9248 27.7296C23.083 27.7267 23.2412 27.7208 23.3994 27.7062C23.4287 27.7032 23.4873 27.6886 23.5371 27.6827C23.5224 27.6886 23.5224 27.6974 23.5664 27.6886C23.581 27.6856 23.5957 27.6857 23.6103 27.6827C23.6367 27.6798 23.666 27.6739 23.6924 27.671C23.9677 27.6241 24.2402 27.5597 24.5068 27.4776C24.6504 27.4337 24.7939 27.3839 24.9345 27.3282C24.9609 27.3194 24.9844 27.3077 25.0107 27.296C25.0722 27.2667 25.1338 27.2403 25.1924 27.211C25.4443 27.0909 25.6875 26.9532 25.9189 26.798C25.9804 26.7569 26.042 26.7159 26.1035 26.672C26.1504 26.6398 26.209 26.5753 26.2617 26.5548C26.2822 26.5372 26.3027 26.5196 26.3232 26.5021C26.376 26.4581 26.4258 26.4142 26.4785 26.3702C26.6894 26.1827 26.8916 25.9806 27.0761 25.7667C27.1201 25.714 27.164 25.6612 27.2051 25.6114C27.2051 25.6144 27.2051 25.6144 27.2021 25.6173C27.2021 25.6144 27.2051 25.6144 27.2051 25.6114C27.208 25.6056 27.2138 25.6026 27.2168 25.5968C27.2256 25.5851 27.2314 25.5763 27.2373 25.5675C27.2461 25.5558 27.2578 25.547 27.2636 25.5353C27.3398 25.4327 27.4131 25.3273 27.4834 25.2189C27.6386 24.9786 27.7763 24.7296 27.8965 24.4689C27.914 24.4308 27.9316 24.3927 27.9463 24.3575C27.9463 24.3546 27.9492 24.3546 27.9492 24.3517C27.9492 24.3517 27.9492 24.3487 27.9521 24.3487C27.9756 24.2901 27.999 24.2315 28.0224 24.17C28.0693 24.047 28.1103 23.9239 28.1455 23.798C28.2275 23.5255 28.289 23.2442 28.333 22.963C28.3242 22.9396 28.3447 22.8634 28.3476 22.837C28.3564 22.7667 28.3623 22.6935 28.3652 22.6232C28.374 22.4796 28.3799 22.336 28.3799 22.1896C28.3945 22.0372 28.3886 21.8732 28.3769 21.7062ZM23.9502 22.38C24.3867 22.8165 24.8232 23.253 25.2597 23.6896C25.5176 23.9474 25.497 24.3487 25.2597 24.6095C25.0224 24.8673 24.5801 24.8497 24.3398 24.6095C24.1787 24.4483 24.0146 24.2843 23.8535 24.1232C23.5195 23.7892 23.1885 23.4581 22.8545 23.1241L22.6816 23.297C22.2451 23.7335 21.8086 24.17 21.372 24.6065C21.1142 24.8644 20.7129 24.8439 20.4521 24.6065C20.1943 24.3692 20.2119 23.9269 20.4521 23.6866C20.6133 23.5255 20.7773 23.3644 20.9385 23.2003C21.2724 22.8663 21.6035 22.5353 21.9375 22.2013C21.8789 22.1427 21.8203 22.0841 21.7646 22.0284C21.3281 21.5919 20.8916 21.1554 20.4551 20.7189C20.1972 20.461 20.2177 20.0597 20.4551 19.7989C20.6924 19.5411 21.1347 19.5587 21.375 19.7989C21.5361 19.9601 21.7002 20.1241 21.8613 20.2853L22.8603 21.2843C22.9189 21.2257 22.9775 21.1671 23.0332 21.1114L24.3427 19.8019C24.6006 19.544 25.0019 19.5646 25.2627 19.8019C25.5205 20.0392 25.5029 20.4815 25.2627 20.7218C25.1015 20.8829 24.9375 21.047 24.7763 21.2081L23.7773 22.2071L23.9502 22.38ZM19.4619 17.8185C19.4414 17.8331 19.4326 17.8419 19.4297 17.8419C19.4355 17.839 19.4736 17.8097 19.4883 17.798C19.4795 17.8038 19.4707 17.8097 19.4619 17.8185ZM18.4687 18.8116C18.4629 18.8204 18.4541 18.8292 18.4482 18.838C18.4629 18.8204 18.4892 18.7823 18.4922 18.7765C18.4922 18.7823 18.4834 18.7911 18.4687 18.8116ZM17.3554 21.4952C17.3554 21.5011 17.3554 21.504 17.3525 21.5099C17.3554 21.4952 17.3584 21.4806 17.3584 21.4659C17.3584 21.4747 17.3554 21.4835 17.3554 21.4952ZM17.3496 21.5187C17.3496 21.5157 17.3525 21.5128 17.3525 21.5099C17.3525 21.5099 17.3525 21.5099 17.3525 21.5069C17.3525 21.5128 17.3525 21.5157 17.3496 21.5187Z" fill="#A9A9A9"/>
</g>
</svg>
