<svg width="30" height="30" viewBox="0 0 30 30" fill="none" xmlns="http://www.w3.org/2000/svg">
<g id="order-deliver 1">
<path id="Vector" d="M27.1289 5.50195C27.1289 5.49609 27.1289 5.49023 27.1289 5.48438V5.48145C27.0996 4.45898 26.6191 3.51562 25.8047 2.90039C25.248 2.47852 24.5449 2.27344 23.8506 2.27344C23.4082 2.27344 22.957 2.28516 22.5146 2.28516H18.0469V9.16699C18.0469 9.17285 18.0439 9.17871 18.0439 9.18457C18.0439 9.21094 18.041 9.2373 18.0322 9.26074C18.0322 9.26367 18.0381 9.26367 18.0381 9.2666H18.0469C18.0469 9.26953 18.0469 9.27246 18.0176 9.27539C18.0176 9.27832 18.0176 9.28125 18.0176 9.28418H18.0234C18.0205 9.29004 18.0176 9.2959 18.0176 9.29883C18.0176 9.31348 18.0088 9.32519 18.0029 9.33984C17.9971 9.35156 17.9912 9.36621 17.9853 9.37793C17.9824 9.38379 17.9795 9.38672 17.9766 9.39258C17.9766 9.39258 17.9766 9.39551 17.9736 9.39551C17.9736 9.39844 17.9707 9.39844 17.9707 9.40137C17.9707 9.4043 17.9678 9.4043 17.9678 9.40723C17.9648 9.41016 17.9619 9.41602 17.959 9.41895C17.959 9.41895 17.959 9.42188 17.956 9.42188C17.9531 9.42773 17.9473 9.43359 17.9443 9.43945C17.9385 9.44531 17.9326 9.45117 17.9268 9.45996C17.9268 9.45996 17.9268 9.45996 17.9238 9.46289C17.9209 9.46582 17.9209 9.46582 17.918 9.46875H17.9238H17.9297C17.9297 9.47461 17.9121 9.48047 17.9062 9.4834H17.9033C17.9033 9.4834 17.9004 9.48633 17.8975 9.48633C17.8945 9.48926 17.8887 9.49219 17.8857 9.49512C17.8828 9.49805 17.8769 9.50098 17.8711 9.50391C17.8623 9.50977 17.8535 9.51562 17.8447 9.52148C17.8418 9.52441 17.8389 9.52441 17.8389 9.52441C17.833 9.52734 17.8271 9.5332 17.8213 9.53613C17.8184 9.53906 17.8154 9.53906 17.8125 9.54199C17.8037 9.54492 17.7978 9.55078 17.7891 9.55371C17.7891 9.55371 17.7861 9.55371 17.7861 9.55664C17.7832 9.55664 17.7803 9.55957 17.7803 9.55957C17.7773 9.5625 17.7715 9.5625 17.7685 9.5625C17.7656 9.56543 17.7598 9.56543 17.7568 9.56543C17.7539 9.56543 17.7539 9.56543 17.7539 9.56836C17.751 9.56836 17.751 9.56836 17.751 9.56836C17.7451 9.57129 17.7393 9.57129 17.7334 9.57422C17.7217 9.57715 17.71 9.57715 17.6982 9.58008C17.6894 9.58301 17.6807 9.58008 17.6689 9.58008C17.666 9.58008 17.666 9.57715 17.6631 9.57715C17.6543 9.58008 17.6484 9.58301 17.6396 9.58594C17.6221 9.58594 17.6045 9.58594 17.5869 9.58301C17.581 9.58301 17.5752 9.58008 17.5693 9.58008H17.5664C17.5635 9.58008 17.5635 9.57715 17.5605 9.57715C17.5605 9.57715 17.5605 9.58008 17.5576 9.58008C17.5576 9.57715 17.5547 9.58008 17.5547 9.58008C17.5459 9.58008 17.5371 9.58008 17.5283 9.58008C17.5225 9.58008 17.5195 9.58008 17.5137 9.58008C17.5107 9.58008 17.5078 9.58008 17.5049 9.57715C17.5019 9.57715 17.499 9.57422 17.4932 9.57422C17.4873 9.57422 17.4814 9.57422 17.4785 9.57129C17.4756 9.57129 17.4697 9.57422 17.4668 9.57422C17.4639 9.57422 17.4609 9.57715 17.458 9.57715C17.4551 9.57715 17.4551 9.57422 17.4521 9.57422C17.4463 9.57129 17.4404 9.56543 17.4346 9.55957V9.55664C17.4316 9.55371 17.4316 9.55078 17.4287 9.54785C17.4287 9.54785 17.4258 9.54785 17.4258 9.54492V9.54785C17.4228 9.54785 17.4228 9.54492 17.4199 9.54492C17.4141 9.54492 17.4111 9.54199 17.4053 9.53906C17.4023 9.53906 17.4023 9.53613 17.3994 9.53613C17.3848 9.52734 17.3701 9.51855 17.3555 9.5127C17.3408 9.50391 17.3262 9.49512 17.3115 9.48926C17.2822 9.47168 17.25 9.45703 17.2207 9.43945C17.1914 9.42188 17.1621 9.40723 17.1299 9.38965C17.1269 9.38672 17.124 9.38672 17.1211 9.38379C17.1064 9.375 17.0918 9.36621 17.0742 9.35742C17.0625 9.35156 17.0508 9.3457 17.0391 9.33691C16.7637 9.18457 16.4853 9.0293 16.21 8.87695C16.0986 8.81543 15.9902 8.75391 15.8789 8.69238C15.7119 8.60156 15.5478 8.50781 15.3809 8.41699C15.2637 8.35254 15.1435 8.28516 15.0264 8.2207C14.9092 8.15625 14.7891 8.08887 14.6719 8.02441C14.6221 8.05078 14.5752 8.07715 14.5254 8.10645C13.8779 8.4668 13.2275 8.82422 12.5801 9.18457C12.3633 9.30469 12.1494 9.4248 11.9326 9.54492C11.7275 9.65918 11.4814 9.58887 11.3555 9.41895C11.3467 9.40723 11.3437 9.39551 11.3379 9.38379C11.3027 9.32227 11.2851 9.25195 11.2851 9.17285V2.28516H5.68652C5.18554 2.28516 4.67284 2.24414 4.18066 2.34375C3.23437 2.53418 2.39062 3.1875 1.97167 4.05469C1.74023 4.53223 1.64062 5.0332 1.64062 5.56348V21.1729C1.64062 21.627 1.60253 22.0986 1.65527 22.5498C1.77245 23.5459 2.32616 24.4541 3.18456 24.9785C3.70898 25.2979 4.30663 25.459 4.91894 25.459H16.834C16.8252 25.4297 16.8135 25.4092 16.8047 25.3916C16.7373 25.2598 16.6758 25.1397 16.6172 25.0107C16.5908 24.9551 16.5674 24.8936 16.5439 24.835C16.5439 24.832 16.541 24.8262 16.541 24.8232C16.541 24.8203 16.5381 24.8174 16.5381 24.8145C16.5293 24.7969 16.5234 24.7793 16.5176 24.7646C16.4971 24.7148 16.4766 24.668 16.456 24.6182C16.4502 24.6035 16.4443 24.5801 16.4385 24.5801H16.4414C16.4414 24.5801 16.4414 24.5742 16.4385 24.5713C16.418 24.5186 16.4004 24.4658 16.3828 24.416C16.3799 24.4072 16.3769 24.3955 16.374 24.3867C16.3682 24.3721 16.3652 24.3574 16.3594 24.3428C16.3506 24.3164 16.3418 24.293 16.333 24.2666C16.3242 24.2402 16.3154 24.2168 16.3096 24.1904C16.3037 24.1758 16.3008 24.1582 16.2949 24.1436C16.2832 24.1084 16.2744 24.0703 16.2627 24.0352C16.2598 24.0205 16.2539 24.0029 16.251 23.9883C16.248 23.9795 16.2451 23.9736 16.2451 23.9648C16.2422 23.9531 16.2393 23.9385 16.2334 23.9268C16.2334 23.9238 16.2305 23.918 16.2305 23.915C16.2305 23.9121 16.2275 23.9063 16.2275 23.9033C16.2275 23.9004 16.2246 23.8945 16.2246 23.8916C16.2217 23.874 16.2158 23.8594 16.2129 23.8418C16.21 23.8242 16.2041 23.8096 16.2012 23.792C16.1953 23.7627 16.1865 23.7363 16.1807 23.707C16.1807 23.7041 16.1807 23.7012 16.1777 23.6982C16.1719 23.6777 16.1689 23.6572 16.1631 23.6338C16.1543 23.5986 16.1484 23.5635 16.1396 23.5283C16.1338 23.4961 16.1279 23.4668 16.1221 23.4346C16.1162 23.4082 16.1133 23.3848 16.1074 23.3584C16.1045 23.3408 16.1016 23.3262 16.0986 23.3086C16.0957 23.291 16.0928 23.2764 16.0898 23.2588C16.0898 23.2529 16.0869 23.25 16.0869 23.2441C16.084 23.2324 16.084 23.2207 16.081 23.209C16.081 23.2061 16.081 23.2061 16.081 23.2031C16.0752 23.1797 16.0723 23.1533 16.0693 23.1299C16.0693 23.127 16.081 23.127 16.081 23.124C16.0664 23.0186 16.0547 22.9131 16.0547 22.8076V22.8047C16.0547 22.7988 16.0576 22.793 16.0547 22.7871C16.0547 22.7695 16.0547 22.752 16.0547 22.7344V22.582C16.0547 22.5762 16.043 22.5674 16.04 22.5615C16.04 22.5557 16.0342 22.5527 16.0312 22.5469C16.0283 22.5352 16.0225 22.5205 16.0225 22.5088C16.0225 22.4854 16.0195 22.4648 16.0195 22.4414C16.0137 22.2656 16.0195 22.0869 16.0254 21.9111C16.0254 21.9082 16.04 21.9023 16.04 21.8994C16.04 21.8994 16.0518 21.8994 16.0518 21.8965C16.0518 21.8789 16.04 21.8613 16.043 21.8467C16.043 21.835 16.0488 21.8203 16.0488 21.8086C16.0488 21.8027 16.0518 21.7998 16.0518 21.7939V21.75C16.0518 21.7236 16.0518 21.6973 16.0547 21.6738L16.0518 21.6709V21.6826H16.0283L16.0254 21.6768L16.0371 21.6738C16.04 21.6387 16.0518 21.6035 16.0518 21.5684V21.5508C16.0518 21.5449 16.04 21.542 16.04 21.5361C16.04 21.5332 16.0342 21.5303 16.0371 21.5273L16.0342 21.5244V21.5215C16.0342 21.5186 16.0342 21.5156 16.0342 21.5127C16.04 21.498 16.0459 21.4805 16.0518 21.4658V21.4629C16.0547 21.457 16.0547 21.4512 16.0547 21.4482C16.0547 21.4453 16.081 21.4453 16.081 21.4424C16.081 21.4395 16.1074 21.4395 16.1074 21.4365V21.4336C16.1074 21.4277 16.081 21.4248 16.081 21.4189C16.081 21.3838 16.0723 21.3486 16.0781 21.3164H16.0723H16.0664C16.0693 21.3018 16.0693 21.2842 16.0693 21.2695C16.0693 21.2666 16.0723 21.2607 16.0752 21.2578V21.2549H16.1045C16.1045 21.252 16.1045 21.252 16.1338 21.249V21.2461C16.1338 21.2432 16.1074 21.2402 16.1103 21.2373H16.1221C16.125 21.2344 16.1367 21.2314 16.1367 21.2285V21.2227V21.208V21.2051C16.1367 21.2021 16.1367 21.2021 16.1367 21.1992C16.1367 21.1992 16.1103 21.1992 16.1103 21.1963H16.0986C16.0986 21.1963 16.0928 21.1963 16.0928 21.1934C16.1016 21.1436 16.1045 21.0938 16.1133 21.0439C16.1133 21.0352 16.1133 21.0234 16.1162 21.0146C16.1191 21 16.1191 20.9854 16.1221 20.9707C16.125 20.9561 16.1279 20.9414 16.1309 20.9268C16.1367 20.9033 16.1396 20.877 16.1455 20.8535C16.1689 20.7305 16.1982 20.6104 16.2275 20.4902C16.2305 20.4756 16.2363 20.4609 16.2393 20.4434C16.2422 20.4346 16.2451 20.4258 16.248 20.4141C16.2598 20.3672 16.2744 20.3203 16.2891 20.2705C16.2949 20.2471 16.3008 20.2266 16.3096 20.2031C16.3242 20.1533 16.3389 20.1064 16.3564 20.0566V20.0537C16.3652 20.0303 16.3711 20.0068 16.3799 19.9834C16.3887 19.96 16.3945 19.9365 16.4033 19.9131C16.4121 19.8897 16.4209 19.8662 16.4297 19.8428C16.4385 19.8193 16.4473 19.7959 16.456 19.7725C16.4707 19.7373 16.4824 19.6992 16.4971 19.6641C16.5117 19.623 16.5293 19.582 16.5469 19.541C16.5615 19.5059 16.5762 19.4736 16.5908 19.4385C16.6084 19.3975 16.6289 19.3535 16.6494 19.3125C16.6611 19.2891 16.6728 19.2627 16.6846 19.2393C16.6875 19.2305 16.6934 19.2217 16.6963 19.2129C16.7109 19.1807 16.7285 19.1484 16.7432 19.1162C16.7519 19.1016 16.7578 19.084 16.7666 19.0693C16.7754 19.0518 16.7842 19.0342 16.793 19.0195C16.7988 19.0078 16.8047 18.999 16.8105 18.9873C16.8105 18.9844 16.8135 18.9844 16.8135 18.9814C16.8135 18.9814 16.8135 18.9785 16.8164 18.9785C16.8252 18.9609 16.834 18.9434 16.8428 18.9287C16.8516 18.9141 16.8574 18.9023 16.8662 18.8877C16.8809 18.8584 16.8984 18.8291 16.916 18.7998C16.9336 18.7676 16.9512 18.7383 16.9717 18.7061C16.9863 18.6826 17.001 18.6562 17.0156 18.6328C17.0156 18.6299 17.0185 18.6299 17.0185 18.627C17.0215 18.6211 17.0273 18.6152 17.0303 18.6094C17.0303 18.6064 17.0332 18.6064 17.0332 18.6064C17.0361 18.6035 17.0361 18.6006 17.0391 18.5977C17.0449 18.5918 17.0478 18.5859 17.0508 18.5801L17.0537 18.5771V18.5742C17.0537 18.5742 17.0537 18.5742 17.0537 18.5713V18.5684V18.5596C17.0537 18.5449 17.0742 18.5303 17.0859 18.5156L17.0889 18.5127C17.0947 18.5039 17.1006 18.4951 17.1064 18.4863C17.1094 18.4834 17.1094 18.4834 17.1094 18.4805L17.1123 18.4775C17.1152 18.4746 17.1152 18.4717 17.1182 18.4688C17.1211 18.4658 17.124 18.4629 17.124 18.46C17.124 18.457 17.1269 18.457 17.1269 18.457C17.1299 18.4541 17.1328 18.4482 17.1328 18.4453C17.1328 18.4424 17.1328 18.4424 17.1357 18.4424C17.1387 18.4395 17.1387 18.4365 17.1416 18.4336L17.1445 18.4365V18.4395V18.4336C17.1445 18.4307 17.1475 18.4277 17.1504 18.4248C17.1562 18.416 17.1592 18.4072 17.165 18.4014L17.168 18.3984C17.168 18.3984 17.168 18.3955 17.1709 18.3955H17.1973C17.2002 18.3926 17.2295 18.3896 17.2295 18.3838C17.2295 18.375 17.2148 18.3633 17.2236 18.3516C17.2236 18.3516 17.2119 18.3486 17.2148 18.3486C17.2148 18.3486 17.209 18.3457 17.209 18.3428L17.206 18.334C17.206 18.3311 17.2031 18.3223 17.2031 18.3223H17.2588V18.3428C17.2588 18.3398 17.2353 18.3398 17.2353 18.3398L17.2236 18.3369H17.2178C17.2178 18.3369 17.2148 18.3369 17.2148 18.334C17.2178 18.3281 17.2207 18.3252 17.2236 18.3193C17.2236 18.3193 17.2236 18.3193 17.2236 18.3164C17.2236 18.3164 17.2236 18.3135 17.2266 18.3135C17.2295 18.3105 17.2324 18.3076 17.2353 18.3047C17.2529 18.2812 17.2705 18.2578 17.2881 18.2344C17.3232 18.1846 17.3613 18.1348 17.3965 18.0879C17.4053 18.0791 17.4111 18.0674 17.4199 18.0586C17.4463 18.0234 17.4726 17.9912 17.499 17.959C17.5078 17.9502 17.5137 17.9414 17.5195 17.9326C17.6016 17.833 17.6836 17.7363 17.7685 17.6396C17.7861 17.6221 17.8008 17.6045 17.8184 17.5869C17.8301 17.5752 17.8418 17.5635 17.8535 17.5488C17.8652 17.5342 17.8769 17.5254 17.8887 17.5137C17.9121 17.4873 17.9385 17.4609 17.9619 17.4375C17.9678 17.4287 17.9766 17.4229 17.9824 17.4141C17.9853 17.4111 17.9883 17.4053 17.9941 17.4023L18.0059 17.3906C18.0088 17.3877 18.0088 17.3877 18.0117 17.3848C18.0117 17.3848 18.0117 17.3848 18.0117 17.3818L18.0146 17.3789L18.0176 17.373C18.0176 17.3701 18.0264 17.3613 18.0322 17.3584H18.0586C18.0703 17.3291 18.082 17.3203 18.0937 17.3086V17.2998C18.1055 17.2998 18.1143 17.2822 18.126 17.2734C18.1318 17.2676 18.1377 17.2646 18.1435 17.2588C18.1465 17.2559 18.1494 17.2529 18.1553 17.25C18.1611 17.2441 18.1406 17.2383 18.1699 17.2324V17.2412H18.1728H18.1816C18.1846 17.2412 18.1875 17.2266 18.1904 17.2236V17.2207L18.1934 17.2148L18.1992 17.209C18.1992 17.209 18.1992 17.2061 18.2021 17.2061C18.2021 17.2061 18.2021 17.2061 18.2021 17.2031C18.2021 17.2002 18.2021 17.2002 18.2051 17.1973H18.2021V17.1943C18.2021 17.1943 18.2109 17.1943 18.2109 17.1914C18.2226 17.1797 18.2373 17.1709 18.249 17.1592C18.2695 17.1416 18.29 17.1211 18.3105 17.1035C18.3193 17.0947 18.331 17.0859 18.3428 17.0771C18.3486 17.0742 18.3545 17.0684 18.3574 17.0625C18.3633 17.0596 18.3662 17.0537 18.3721 17.0479C18.3809 17.0391 18.3896 17.0303 18.4014 17.0244L18.4043 17.0215C18.4307 16.998 18.46 16.9746 18.4893 16.9541C18.4922 16.9512 18.4951 16.9482 18.498 16.9453C18.5127 16.9336 18.5273 16.9219 18.542 16.9102V16.916C18.5508 16.916 18.5566 16.9014 18.5654 16.8955C18.5684 16.8926 18.5713 16.8896 18.5713 16.8896L18.5742 16.8867L18.5771 16.8838C18.583 16.8779 18.5918 16.8721 18.5976 16.8662C18.5976 16.8662 18.6006 16.8662 18.6006 16.8633C18.6064 16.8604 18.6094 16.8545 18.6152 16.8516C18.6182 16.8486 18.6416 16.8486 18.6416 16.8457C18.6416 16.8457 18.665 16.8457 18.665 16.8428C18.665 16.8428 18.6445 16.8428 18.6475 16.8398L18.6387 16.8369L18.6533 16.834H18.665C18.665 16.834 18.6475 16.8311 18.6504 16.8311C18.6855 16.8018 18.7119 16.7754 18.7471 16.749C18.75 16.7461 18.7471 16.7461 18.75 16.7432C18.7529 16.7402 18.75 16.7402 18.7529 16.7402V16.7373V16.7549V16.7695L18.7559 16.752V16.7432V16.7373C18.7588 16.7344 18.7588 16.7314 18.7617 16.7314C18.7646 16.7285 18.7676 16.7256 18.7705 16.7227C18.7764 16.7168 18.7822 16.7139 18.7851 16.708V16.7285V16.7432H18.7881C18.7881 16.7432 18.7881 16.7227 18.791 16.7227C18.7939 16.7197 18.8115 16.708 18.8144 16.7051C18.8174 16.7051 18.8057 16.6934 18.835 16.6904C18.835 16.6904 18.8232 16.6904 18.8262 16.6904H18.832H18.8379H18.8291C18.8613 16.667 18.8877 16.6436 18.9199 16.6201C18.9258 16.6172 18.9287 16.6113 18.9346 16.6084C18.958 16.5908 18.9873 16.5703 19.0137 16.5527H19.0107C19.0254 16.541 19.04 16.5352 19.0576 16.5264C19.0605 16.5264 19.0605 16.5234 19.0605 16.5234C19.0723 16.5176 19.0869 16.5088 19.0986 16.4971C19.0986 16.4971 19.1016 16.4971 19.1016 16.4941C19.1016 16.4941 19.1016 16.4941 19.1016 16.4912L19.1045 16.4854L19.1074 16.4795C19.1074 16.4795 19.1074 16.4795 19.1103 16.4795H19.1133C19.1162 16.4795 19.1162 16.4795 19.1191 16.4766C19.1191 16.4766 19.1191 16.4766 19.1221 16.4766C19.1426 16.459 19.1631 16.4414 19.1836 16.4297C19.1836 16.4297 19.1836 16.4209 19.1865 16.4209C19.1894 16.4209 19.1894 16.4268 19.1924 16.4268L19.1953 16.4297C19.1982 16.4268 19.2041 16.4268 19.207 16.4268V16.4238C19.207 16.4238 19.207 16.4238 19.21 16.4238H19.2129H19.2158C19.2187 16.4238 19.2187 16.4209 19.2187 16.4209V16.4238C19.2187 16.4209 19.2246 16.418 19.2305 16.415C19.2334 16.4121 19.2363 16.4092 19.2393 16.4092L19.2422 16.4062C19.2451 16.4062 19.2451 16.4033 19.2451 16.4033C19.248 16.4033 19.248 16.4004 19.251 16.4004C19.2539 16.4004 19.2539 16.3975 19.2568 16.3975L19.2598 16.3945L19.2627 16.3916C19.2627 16.3916 19.2656 16.3916 19.2656 16.3887C19.2685 16.3887 19.2685 16.3857 19.2715 16.3857C19.2773 16.3828 19.2832 16.3799 19.2861 16.377C19.292 16.374 19.2949 16.3711 19.3008 16.3682C19.3066 16.3652 19.3096 16.3623 19.3154 16.3594C19.3184 16.3594 19.3184 16.3564 19.3213 16.3564C19.3271 16.3535 19.3301 16.3506 19.3359 16.3477C19.3389 16.3477 19.3389 16.3447 19.3418 16.3447C19.3418 16.3418 19.3447 16.3418 19.3477 16.3418C19.3477 16.3418 19.3476 16.3389 19.3506 16.3389C19.3535 16.3389 19.3564 16.3389 19.3594 16.3389C19.3623 16.3359 19.3623 16.3359 19.3652 16.3359C19.3652 16.3359 19.3652 16.3359 19.3682 16.3359C19.3711 16.3359 19.3711 16.333 19.374 16.333H19.3769C19.3857 16.3301 19.3916 16.3271 19.4004 16.3242C19.4092 16.3213 19.418 16.3154 19.4268 16.3154C19.4297 16.2861 19.4355 16.3066 19.4385 16.3008V16.2979C19.4502 16.2891 19.4619 16.2803 19.4736 16.2773V16.2803V16.2861V16.2832C19.4736 16.2832 19.4736 16.2832 19.4736 16.2861V16.2891C19.4766 16.2891 19.4795 16.2861 19.4824 16.2832C19.4883 16.2803 19.4912 16.2744 19.4971 16.2715C19.5176 16.2598 19.5381 16.2451 19.5586 16.2334C19.5615 16.2305 19.5644 16.2275 19.5674 16.2275L19.5703 16.2246C19.5703 16.2246 19.5703 16.2246 19.5732 16.2246C19.5762 16.2217 19.5791 16.2217 19.585 16.2187C19.5908 16.2158 19.5996 16.21 19.6055 16.207C19.6113 16.2041 19.6143 16.2012 19.6201 16.1982C19.6201 16.1982 19.6406 16.1982 19.6377 16.1982C19.6348 16.1982 19.6553 16.1982 19.6553 16.1982H19.6377C19.6377 16.1982 19.6435 16.1982 19.6435 16.1953C19.7139 16.1572 19.8018 16.1221 19.8603 16.0869V16.1162H19.8428C19.8691 16.0869 19.8984 16.0723 19.9248 16.0576C19.9336 16.0547 19.9512 16.0459 19.957 16.043C19.96 16.04 19.9482 16.0371 19.9775 16.0342C19.9775 16.0342 19.9687 16.0312 19.9717 16.0312C19.9746 16.0283 19.9717 16.0283 19.9717 16.0254H19.9687C19.9717 16.0225 19.9746 16.0195 19.9775 16.0195C19.9805 16.0166 19.9863 16.0137 19.9893 16.0137C20.0039 16.0049 20.0185 15.999 20.0332 15.9932C20.0332 15.9932 20.0449 15.9932 20.0449 15.9902C20.0478 15.9873 20.0361 15.9873 20.0654 15.9844V15.9375H20.0596C20.0684 15.9375 20.0742 15.9404 20.083 15.9375C20.083 15.9375 20.083 15.9404 20.0859 15.9375C20.0889 15.9375 20.0918 15.9375 20.0918 15.9375C20.0976 15.9346 20.1006 15.9346 20.1064 15.9316H20.1094C20.1152 15.9287 20.1182 15.9258 20.124 15.9229H20.1269C20.1416 15.9141 20.1445 15.9082 20.1592 15.9023L20.1504 15.9053V15.917C20.1504 15.9141 20.1738 15.9111 20.1768 15.9082V15.9053H20.1826C20.1826 15.9053 20.1475 15.9023 20.206 15.9023H20.1943V15.8994C20.1943 15.8965 20.1943 15.8936 20.1943 15.8936L20.1914 15.8848H20.1973H20.2002H20.2031C20.2031 15.8848 20.2031 15.8848 20.206 15.8848H20.209H20.2119H20.2148C20.2148 15.8848 20.2178 15.8877 20.2178 15.8848H20.2207C20.2236 15.8848 20.2236 15.8848 20.2236 15.8848C20.2236 15.8848 20.2236 15.8848 20.2266 15.8848C20.2266 15.8848 20.2266 15.8848 20.2295 15.8848V15.8818H20.2324C20.2324 15.8818 20.2324 15.8789 20.2353 15.8789C20.2383 15.8789 20.2383 15.8789 20.2383 15.876C20.2383 15.876 20.2412 15.876 20.2412 15.873C20.2412 15.873 20.2441 15.873 20.2441 15.8701C20.2471 15.8701 20.2471 15.8672 20.25 15.8672C20.2559 15.8643 20.2588 15.8613 20.2646 15.8613C20.2646 15.8613 20.2676 15.8613 20.2676 15.8584C20.2676 15.8584 20.2676 15.8584 20.2705 15.8584H20.2734C20.2793 15.8555 20.2822 15.8525 20.2881 15.8525H20.291H20.2939C20.2969 15.8525 20.2998 15.8525 20.3027 15.8525H20.3057C20.3086 15.8525 20.3115 15.8525 20.3144 15.8525L20.3174 15.8467C20.3262 15.8438 20.3379 15.8379 20.3496 15.832C20.3555 15.8291 20.3643 15.8262 20.373 15.8232C20.376 15.8232 20.3789 15.8203 20.3818 15.8203C20.3848 15.8203 20.3994 15.8174 20.3994 15.8174C20.4053 15.8145 20.3994 15.8115 20.4287 15.8086V15.8174V15.8203L20.417 15.8174L20.4111 15.8145L20.4082 15.8115C20.4082 15.8115 20.4053 15.8086 20.4023 15.8086H20.4141L20.4258 15.8057V15.8027H20.4199L20.4141 15.7939C20.4199 15.7939 20.4287 15.791 20.4346 15.7881L20.4375 15.791V15.7939H20.4404H20.4434C20.4521 15.7939 20.4609 15.7939 20.4697 15.791H20.4726C20.4756 15.7881 20.4873 15.7852 20.4902 15.7852C20.4932 15.7822 20.5078 15.7793 20.5078 15.7793L20.4873 15.7646V15.7705C20.4873 15.7705 20.4873 15.7705 20.4902 15.7705C20.5078 15.7705 20.4902 15.7676 20.4902 15.7676H20.4932H20.4961L20.499 15.7646C20.499 15.7646 20.499 15.7646 20.4961 15.7646C20.4961 15.7646 20.4961 15.7646 20.499 15.7646C20.499 15.7646 20.499 15.7646 20.5019 15.7646H20.5078H20.5107H20.5312C20.5312 15.7617 20.5283 15.7617 20.5312 15.7617C20.5342 15.7617 20.5312 15.7588 20.5371 15.7588C20.5371 15.7588 20.5371 15.7588 20.54 15.7588C20.5459 15.7559 20.5518 15.7529 20.5605 15.7529H20.5635C20.5664 15.7529 20.5693 15.75 20.5723 15.75C20.5752 15.75 20.581 15.7471 20.584 15.7471C20.5869 15.7471 20.5928 15.7441 20.5986 15.7441H20.6016C20.6045 15.7441 20.6074 15.7412 20.6103 15.7412C20.6133 15.7412 20.6133 15.7412 20.6162 15.7412C20.6191 15.7412 20.6221 15.7412 20.625 15.7412H20.6484V15.7295C20.6484 15.7295 20.6338 15.7412 20.6367 15.7412H20.6426C20.6426 15.7412 20.6426 15.7354 20.6426 15.7324C20.6426 15.7295 20.6455 15.7266 20.6455 15.7236C20.6484 15.7178 20.6484 15.7178 20.6514 15.7207C20.6543 15.7236 20.6543 15.7236 20.6572 15.7236C20.6601 15.7207 20.666 15.7178 20.6689 15.7148C20.6719 15.7119 20.6748 15.7148 20.6777 15.7119H20.6807H20.6836C20.6924 15.7119 20.7012 15.7119 20.71 15.7119C20.7275 15.6826 20.7422 15.6973 20.7598 15.6914C20.7656 15.6885 20.7685 15.6855 20.7744 15.6855C20.7803 15.6826 20.7832 15.6826 20.7891 15.6797C20.8154 15.6709 20.8447 15.6621 20.8711 15.6533C20.8828 15.6504 20.8945 15.6475 20.9062 15.6445H20.9092C20.9238 15.6387 20.9385 15.6357 20.956 15.6328C20.9766 15.627 20.9971 15.6211 21.0176 15.6152C21.0264 15.6123 21.0351 15.6094 21.0439 15.6094C21.0527 15.6064 21.0615 15.6035 21.0703 15.6006C21.0762 15.5977 21.082 15.5977 21.0908 15.5947C21.0967 15.5947 21.0996 15.5918 21.1055 15.5918C21.1113 15.5889 21.1172 15.5889 21.123 15.5859C21.126 15.5859 21.1289 15.583 21.1318 15.583C21.1465 15.5801 21.1641 15.5742 21.1787 15.5713C21.1816 15.5713 21.1846 15.5859 21.1875 15.5859C21.1934 15.583 21.1992 15.5977 21.2051 15.5977V15.5801L21.208 15.5684C21.2139 15.5684 21.2197 15.5625 21.2227 15.5625C21.2314 15.5596 21.2402 15.5566 21.249 15.5566C21.2637 15.5537 21.2754 15.5508 21.29 15.5479C21.293 15.5479 21.2959 15.5449 21.2988 15.5449C21.3252 15.5391 21.3486 15.5332 21.375 15.5273C21.3867 15.5244 21.3984 15.5215 21.4101 15.5215C21.4277 15.5186 21.4424 15.5156 21.46 15.5098C21.4893 15.5039 21.5156 15.498 21.5449 15.4922C21.5625 15.4893 21.5801 15.4863 21.5976 15.4834C21.6064 15.4805 21.6182 15.4805 21.6269 15.4775C21.6357 15.4746 21.6475 15.4746 21.6562 15.4717C21.6738 15.4687 21.6914 15.4658 21.7119 15.4629C21.7148 15.4629 21.7207 15.4629 21.7236 15.46C21.7441 15.457 21.7646 15.4541 21.7851 15.4512C21.791 15.4512 21.7998 15.4482 21.8057 15.4482C21.8291 15.4453 21.8555 15.4395 21.8789 15.4365C21.8877 15.4336 21.8994 15.4336 21.9111 15.4336C21.9199 15.4307 21.9316 15.4307 21.9404 15.4307C21.9492 15.4307 21.958 15.4277 21.9668 15.4277C21.9844 15.4248 22.0049 15.4219 22.0225 15.4219C22.0459 15.4189 22.0693 15.416 22.0928 15.4131C22.1016 15.4131 22.1074 15.4102 22.1162 15.4102C22.1221 15.4102 22.1279 15.4102 22.1338 15.4072C22.1455 15.4072 22.1572 15.4043 22.1689 15.4043C22.1719 15.4043 22.1719 15.4043 22.1748 15.4043C22.1894 15.4014 22.207 15.4014 22.2217 15.4014C22.2363 15.4014 22.248 15.3984 22.2627 15.3984C22.2656 15.3984 22.2715 15.3984 22.2744 15.3984C22.2803 15.3984 22.2832 15.3984 22.2891 15.3984C22.3096 15.3955 22.3301 15.3955 22.3476 15.3955C22.3682 15.3926 22.3916 15.3926 22.4121 15.3926C22.4209 15.3926 22.4268 15.3926 22.4355 15.3896C22.4502 15.3896 22.4619 15.3867 22.4766 15.3867C22.4824 15.3867 22.4883 15.3867 22.4941 15.3867C22.6875 15.3779 22.8809 15.375 23.0742 15.3838C23.083 15.3838 23.0889 15.3838 23.0977 15.3838C23.1182 15.3838 23.1357 15.3867 23.1562 15.3867C23.165 15.3867 23.1738 15.3867 23.1826 15.3867C23.1855 15.3867 23.1885 15.3867 23.1914 15.3867C23.1943 15.3867 23.1973 15.3867 23.2002 15.3867C23.206 15.3867 23.2119 15.3867 23.2207 15.3867C23.2236 15.3867 23.2266 15.3867 23.2295 15.3867C23.2324 15.3867 23.2353 15.3867 23.2383 15.3867C23.2441 15.3867 23.25 15.3867 23.2588 15.3867C23.2734 15.3867 23.2881 15.3896 23.3027 15.3896C23.3174 15.3896 23.332 15.3926 23.3467 15.3926C23.373 15.3955 23.3965 15.3984 23.4199 15.4014C23.4228 15.4014 23.4258 15.4131 23.4287 15.4131C23.4346 15.4131 23.4404 15.4219 23.4463 15.4219H23.5195C23.5723 15.4219 23.625 15.4248 23.6777 15.4336C23.7041 15.4365 23.7305 15.4365 23.7568 15.4395C23.7832 15.4424 23.8096 15.4453 23.8359 15.4482C23.9414 15.4629 24.0469 15.4805 24.1523 15.501C24.1553 15.501 24.1582 15.501 24.1641 15.5039C24.1846 15.5068 24.2051 15.5127 24.2256 15.5156C24.2549 15.5215 24.2842 15.5273 24.3135 15.5332C24.331 15.5361 24.3516 15.542 24.3691 15.5449C24.3809 15.5479 24.3926 15.5508 24.4043 15.5537C24.4336 15.5596 24.46 15.5684 24.4893 15.5742C24.6211 15.6064 24.7529 15.6445 24.8848 15.6855C24.9111 15.6943 24.9434 15.7031 24.9697 15.7119C25.0019 15.7207 25.0342 15.7324 25.0664 15.7441C25.0723 15.7471 25.081 15.75 25.0869 15.75C25.1367 15.7676 25.1865 15.7852 25.2363 15.8057C25.2598 15.8145 25.2861 15.8232 25.3096 15.835C25.3506 15.8496 25.3887 15.8672 25.4297 15.8848C25.4414 15.8906 25.4531 15.8936 25.4678 15.8994C25.4853 15.9053 25.5 15.9141 25.5176 15.9199C25.541 15.9287 25.585 15.9404 25.6084 15.9492C25.8193 16.043 26.0215 16.1484 26.2559 16.2627V16.2656C26.2559 16.2803 26.2793 16.2949 26.3027 16.3096H26.2939H26.291H26.2881C26.2939 16.3125 26.2969 16.3154 26.2998 16.3184C26.3027 16.3213 26.3057 16.3242 26.3115 16.3271C26.335 16.3418 26.3613 16.3564 26.3848 16.374C26.3877 16.374 26.3877 16.377 26.3906 16.377C26.3965 16.3799 26.4023 16.3828 26.4082 16.3857C26.4287 16.4004 26.4521 16.4121 26.4726 16.4268V16.4326V16.4297H26.4756C26.4756 16.4297 26.4785 16.4297 26.4785 16.4326C26.4814 16.4355 26.4844 16.4355 26.4873 16.4385C26.4873 16.4385 26.4902 16.4385 26.4902 16.4414C26.4932 16.4414 26.4932 16.4443 26.4961 16.4443H26.499C26.5078 16.4502 26.5137 16.4531 26.5225 16.459C26.54 16.4707 26.5576 16.4824 26.5752 16.4941C26.5928 16.5059 26.6103 16.5176 26.6279 16.5293L26.6309 16.5322C26.6338 16.5352 26.6367 16.5381 26.6396 16.541C26.7832 16.6377 26.9355 16.7432 27.0703 16.8516C27.0762 16.8545 27.0703 16.8604 27.0996 16.8633V6.96973C27.1289 6.48047 27.1465 5.99121 27.1289 5.50195ZM4.95995 16.9629H7.85742C8.2207 16.9629 8.49023 17.2559 8.5078 17.6074C8.52245 17.959 8.19726 18.252 7.85742 18.252H4.95995C4.59667 18.252 4.32714 17.959 4.30956 17.6074C4.29491 17.2559 4.62011 16.9629 4.95995 16.9629ZM12.0117 21.5625H4.95995C4.59667 21.5625 4.32714 21.2695 4.30956 20.918C4.29491 20.5664 4.62011 20.2734 4.95995 20.2734H12.0117C12.375 20.2734 12.6445 20.5664 12.6621 20.918C12.6768 21.2695 12.3516 21.5625 12.0117 21.5625Z" fill="#4AD991"/>
<path id="Vector_2" d="M28.3564 21.6944C28.3506 21.6124 28.3418 21.5304 28.333 21.4483C28.333 21.4454 28.333 21.4425 28.333 21.4396V21.4366C28.333 21.4337 28.333 21.4308 28.3301 21.4278C28.3242 21.3956 28.3213 21.3634 28.3154 21.3312C28.2597 21.0001 28.1777 20.672 28.0664 20.3526C28.0342 20.2618 28.0019 20.1739 27.9668 20.086C27.9609 20.0743 27.9521 20.0538 27.9433 20.0333C27.9521 20.0773 27.9345 20.086 27.9316 20.0011C27.9316 20.0011 27.9316 20.0011 27.9316 20.004C27.9316 20.0128 27.9375 20.0216 27.9433 20.0333C27.9404 20.0245 27.9404 20.0128 27.9345 20.004L27.9404 20.0011H27.9463V19.9981C27.9463 19.9981 27.9404 19.9981 27.9404 20.0011C27.8789 19.8575 27.8027 19.7169 27.7265 19.5792C27.5888 19.3243 27.4306 19.0431 27.2402 18.8175C27.2402 18.8146 27.2373 18.8146 27.2344 18.8116C27.2314 18.8087 27.2285 18.8028 27.2226 18.7999C27.208 18.7853 27.1933 18.7677 27.1845 18.756C27.1553 18.7208 27.126 18.6827 27.0937 18.6476C27.0439 18.589 26.9912 18.5304 26.9385 18.4718C26.833 18.3575 26.7246 18.2462 26.6133 18.1407C26.4961 18.0323 26.376 17.9298 26.2529 17.8273C26.2412 17.8185 26.2324 17.8126 26.2265 17.8038C26.2207 17.798 26.2119 17.7921 26.2002 17.7833C26.1679 17.7599 26.1386 17.7364 26.1064 17.713C26.0302 17.6573 25.9511 17.6046 25.872 17.5519C25.7138 17.4493 25.5527 17.3556 25.3886 17.2677C25.3125 17.2267 25.2363 17.1886 25.1601 17.1534C25.1279 17.1388 25.0986 17.1241 25.0664 17.1095C25.0576 17.1065 25.04 17.0978 25.0195 17.089C25.0136 17.086 25.0078 17.0831 25.0019 17.0802C24.7031 16.9366 24.3603 16.8517 24.041 16.7784C23.9385 16.755 23.8359 16.7345 23.7304 16.7169C23.6777 16.7081 23.625 16.6993 23.5722 16.6905C23.5605 16.6876 23.5371 16.6847 23.5224 16.6788H23.5195C23.3672 16.6554 23.2031 16.6554 23.0508 16.6495C22.7402 16.6378 22.4326 16.6524 22.125 16.6847C22.1133 16.6847 22.1045 16.6876 22.0986 16.6876C22.0752 16.6905 22.0488 16.6964 22.0254 16.6993C21.9551 16.711 21.8877 16.7228 21.8174 16.7374C21.6797 16.7638 21.5449 16.796 21.4101 16.8312C21.2636 16.8692 21.1172 16.9161 20.9736 16.9659C20.9092 16.9894 20.8447 17.0128 20.7802 17.0362C20.7539 17.045 20.7304 17.0567 20.707 17.0655C20.6689 17.1065 20.5547 17.1329 20.5049 17.1564C20.4492 17.1827 20.3935 17.2091 20.3408 17.2384C20.2207 17.2999 20.1006 17.3673 19.9863 17.4376C19.8574 17.5138 19.7344 17.5958 19.6113 17.6808C19.5674 17.713 19.5234 17.7423 19.4795 17.7745C19.4648 17.798 19.4092 17.8302 19.3857 17.8478C19.1719 18.0235 18.9697 18.211 18.7793 18.4132C18.6826 18.5157 18.5888 18.6241 18.501 18.7325C18.4834 18.753 18.4541 18.8087 18.4277 18.8263C18.3955 18.8702 18.3633 18.9112 18.334 18.9552C18.1699 19.1866 18.0234 19.4327 17.8916 19.6847C17.8594 19.7462 17.8301 19.8048 17.8008 19.8663C17.7802 19.9132 17.7568 20.0187 17.7187 20.0509C17.7099 20.0743 17.6982 20.1007 17.6894 20.1241C17.666 20.1886 17.6396 20.253 17.6191 20.3175C17.5224 20.5929 17.4463 20.8741 17.3906 21.1612C17.376 21.2374 17.3613 21.3136 17.3496 21.3898C17.3467 21.4044 17.3467 21.422 17.3437 21.4396C17.3554 21.3956 17.373 21.378 17.3349 21.4864C17.3203 21.6153 17.3086 21.7442 17.3027 21.8761C17.2851 22.2247 17.2969 22.5733 17.3379 22.9161V22.919C17.3408 22.9366 17.3525 23.0069 17.3554 23.0245C17.3642 23.0802 17.376 23.1358 17.3847 23.1886C17.4023 23.2794 17.4228 23.3702 17.4433 23.461C17.4844 23.631 17.5342 23.798 17.5898 23.9649C17.622 24.0616 17.6543 24.1554 17.6924 24.2491C17.6953 24.2579 17.7304 24.3429 17.7334 24.3517C17.7422 24.3722 17.751 24.3927 17.7627 24.4161C17.8359 24.5773 17.9179 24.7355 18.0029 24.8907C18.082 25.0314 18.167 25.169 18.2578 25.3038C18.2988 25.3653 18.3398 25.4239 18.3838 25.4855C18.4013 25.5089 18.4189 25.5323 18.4365 25.5558C18.4365 25.5587 18.4394 25.5587 18.4394 25.5587L18.4424 25.5616C18.6299 25.7901 18.8232 26.0069 19.0371 26.2091C19.1543 26.3204 19.2773 26.4259 19.4004 26.5284C19.4033 26.5314 19.4092 26.5372 19.4179 26.5431L19.4209 26.546C19.4209 26.546 19.4238 26.546 19.4238 26.5489L19.4267 26.5519L19.4297 26.5548C19.4472 26.5694 19.4736 26.587 19.4765 26.5899C19.5351 26.6339 19.5967 26.6778 19.6553 26.7189C19.9043 26.8888 20.1679 27.044 20.4375 27.1759C20.5107 27.211 20.5869 27.2462 20.6601 27.2784C20.6631 27.2814 20.666 27.2814 20.6689 27.2814C20.6953 27.2931 20.7246 27.3019 20.751 27.3136C20.8916 27.3692 21.0322 27.4161 21.1758 27.4601C21.334 27.5099 21.4951 27.5509 21.6592 27.586C21.7939 27.6153 21.9726 27.6798 22.1103 27.6681C22.084 27.6651 22.0576 27.6593 22.0283 27.6564C22.0576 27.6593 22.0898 27.6651 22.1191 27.6681C22.1572 27.671 22.1953 27.6769 22.2334 27.6798C22.3037 27.6856 22.374 27.6915 22.4443 27.6944C22.5996 27.7032 22.7549 27.7062 22.9072 27.7062C23.0654 27.7032 23.2236 27.6974 23.3818 27.6827C23.4111 27.6798 23.4697 27.6651 23.5195 27.6593C23.5049 27.6651 23.5049 27.6739 23.5459 27.6651C23.5605 27.6622 23.5752 27.6622 23.5898 27.6593C23.6162 27.6564 23.6455 27.6505 23.6719 27.6476C23.9472 27.6007 24.2168 27.5362 24.4834 27.4542C24.6269 27.4103 24.7705 27.3605 24.9111 27.3048C24.9375 27.296 24.9609 27.2843 24.9873 27.2726C25.0488 27.2433 25.1103 27.2169 25.1689 27.1876C25.4209 27.0675 25.6611 26.9298 25.8955 26.7774C25.957 26.7364 26.0185 26.6954 26.0801 26.6515C26.1269 26.6192 26.1855 26.5548 26.2383 26.5343C26.2588 26.5167 26.2793 26.4991 26.2998 26.4815C26.3525 26.4376 26.4023 26.3937 26.4521 26.3497C26.6631 26.1622 26.8623 25.9601 27.0469 25.7462C27.0908 25.6935 27.1347 25.6437 27.1758 25.5909C27.1758 25.5939 27.1758 25.5939 27.1728 25.5968C27.1728 25.5939 27.1758 25.5939 27.1758 25.5909C27.1787 25.5851 27.1845 25.5821 27.1875 25.5763C27.1963 25.5646 27.2021 25.5558 27.208 25.547C27.2168 25.5353 27.2285 25.5235 27.2344 25.5148C27.3105 25.4122 27.3838 25.3067 27.4541 25.1983C27.6094 24.9581 27.747 24.7091 27.8672 24.4513C27.8847 24.4132 27.9023 24.3751 27.917 24.3399C27.917 24.337 27.9199 24.337 27.9199 24.3341C27.9199 24.3341 27.9199 24.3312 27.9228 24.3312C27.9463 24.2726 27.9697 24.214 27.9931 24.1524C28.04 24.0294 28.081 23.9064 28.1162 23.7804C28.1982 23.5079 28.2597 23.2296 28.3037 22.9454C28.2949 22.922 28.3154 22.8458 28.3183 22.8194C28.3271 22.7491 28.333 22.6759 28.3359 22.6056C28.3447 22.462 28.3506 22.3185 28.3506 22.172C28.3769 22.0255 28.3711 21.8585 28.3564 21.6944ZM26.0478 22.6495C25.5293 23.1798 25.0107 23.7101 24.4892 24.2403C24.2344 24.5011 23.8271 24.4776 23.5722 24.2403C23.3115 24.003 23.3349 23.5694 23.5722 23.3263C23.7304 23.1651 23.8857 23.0274 24.0439 22.8517H20.0947C19.7314 22.8517 19.4619 22.5587 19.4443 22.2071C19.4297 21.8556 19.7549 21.5626 20.0947 21.5626H24.041C23.8828 21.3575 23.7275 21.2315 23.5693 21.0704C23.3144 20.8126 23.3291 20.4083 23.5693 20.1476C23.8037 19.8927 24.249 19.9015 24.4863 20.1446C25.0049 20.6749 25.5234 21.2023 26.0449 21.7325C26.3056 21.9728 26.2851 22.4064 26.0478 22.6495Z" fill="#4AD991"/>
</g>
</svg>
