<svg width="27" height="24" viewBox="0 0 27 24" fill="none" xmlns="http://www.w3.org/2000/svg">
<path id="Vector" d="M26.1289 3.50195C26.1289 3.49609 26.1289 3.49023 26.1289 3.48438V3.48145C26.0996 2.45898 25.6191 1.51562 24.8047 0.900391C24.248 0.478516 23.5449 0.273438 22.8506 0.273438C22.4082 0.273438 21.957 0.285156 21.5146 0.285156H17.0469V7.16699C17.0469 7.17285 17.0439 7.17871 17.0439 7.18457C17.0439 7.21094 17.041 7.2373 17.0322 7.26074C17.0322 7.26367 17.0381 7.26367 17.0381 7.2666H17.0469C17.0469 7.26953 17.0469 7.27246 17.0176 7.27539C17.0176 7.27832 17.0176 7.28125 17.0176 7.28418H17.0234C17.0205 7.29004 17.0176 7.2959 17.0176 7.29883C17.0176 7.31348 17.0088 7.32519 17.0029 7.33984C16.9971 7.35156 16.9912 7.36621 16.9853 7.37793C16.9824 7.38379 16.9795 7.38672 16.9766 7.39258C16.9766 7.39258 16.9766 7.39551 16.9736 7.39551C16.9736 7.39844 16.9707 7.39844 16.9707 7.40137C16.9707 7.4043 16.9678 7.4043 16.9678 7.40723C16.9648 7.41016 16.9619 7.41602 16.959 7.41895C16.959 7.41895 16.959 7.42188 16.956 7.42188C16.9531 7.42773 16.9473 7.43359 16.9443 7.43945C16.9385 7.44531 16.9326 7.45117 16.9268 7.45996C16.9268 7.45996 16.9268 7.45996 16.9238 7.46289C16.9209 7.46582 16.9209 7.46582 16.918 7.46875H16.9238H16.9297C16.9297 7.47461 16.9121 7.48047 16.9062 7.4834H16.9033C16.9033 7.4834 16.9004 7.48633 16.8975 7.48633C16.8945 7.48926 16.8887 7.49219 16.8857 7.49512C16.8828 7.49805 16.8769 7.50098 16.8711 7.50391C16.8623 7.50977 16.8535 7.51562 16.8447 7.52148C16.8418 7.52441 16.8389 7.52441 16.8389 7.52441C16.833 7.52734 16.8271 7.5332 16.8213 7.53613C16.8184 7.53906 16.8154 7.53906 16.8125 7.54199C16.8037 7.54492 16.7978 7.55078 16.7891 7.55371C16.7891 7.55371 16.7861 7.55371 16.7861 7.55664C16.7832 7.55664 16.7803 7.55957 16.7803 7.55957C16.7773 7.5625 16.7715 7.5625 16.7685 7.5625C16.7656 7.56543 16.7598 7.56543 16.7568 7.56543C16.7539 7.56543 16.7539 7.56543 16.7539 7.56836C16.751 7.56836 16.751 7.56836 16.751 7.56836C16.7451 7.57129 16.7393 7.57129 16.7334 7.57422C16.7217 7.57715 16.71 7.57715 16.6982 7.58008C16.6894 7.58301 16.6807 7.58008 16.6689 7.58008C16.666 7.58008 16.666 7.57715 16.6631 7.57715C16.6543 7.58008 16.6484 7.58301 16.6396 7.58594C16.6221 7.58594 16.6045 7.58594 16.5869 7.58301C16.581 7.58301 16.5752 7.58008 16.5693 7.58008H16.5664C16.5635 7.58008 16.5635 7.57715 16.5605 7.57715C16.5605 7.57715 16.5605 7.58008 16.5576 7.58008C16.5576 7.57715 16.5547 7.58008 16.5547 7.58008C16.5459 7.58008 16.5371 7.58008 16.5283 7.58008C16.5225 7.58008 16.5195 7.58008 16.5137 7.58008C16.5107 7.58008 16.5078 7.58008 16.5049 7.57715C16.5019 7.57715 16.499 7.57422 16.4932 7.57422C16.4873 7.57422 16.4814 7.57422 16.4785 7.57129C16.4756 7.57129 16.4697 7.57422 16.4668 7.57422C16.4639 7.57422 16.4609 7.57715 16.458 7.57715C16.4551 7.57715 16.4551 7.57422 16.4521 7.57422C16.4463 7.57129 16.4404 7.56543 16.4346 7.55957V7.55664C16.4316 7.55371 16.4316 7.55078 16.4287 7.54785C16.4287 7.54785 16.4258 7.54785 16.4258 7.54492V7.54785C16.4228 7.54785 16.4228 7.54492 16.4199 7.54492C16.4141 7.54492 16.4111 7.54199 16.4053 7.53906C16.4023 7.53906 16.4023 7.53613 16.3994 7.53613C16.3848 7.52734 16.3701 7.51855 16.3555 7.5127C16.3408 7.50391 16.3262 7.49512 16.3115 7.48926C16.2822 7.47168 16.25 7.45703 16.2207 7.43945C16.1914 7.42188 16.1621 7.40723 16.1299 7.38965C16.1269 7.38672 16.124 7.38672 16.1211 7.38379C16.1064 7.375 16.0918 7.36621 16.0742 7.35742C16.0625 7.35156 16.0508 7.3457 16.0391 7.33691C15.7637 7.18457 15.4853 7.0293 15.21 6.87695C15.0986 6.81543 14.9902 6.75391 14.8789 6.69238C14.7119 6.60156 14.5478 6.50781 14.3809 6.41699C14.2637 6.35254 14.1435 6.28516 14.0264 6.2207C13.9092 6.15625 13.7891 6.08887 13.6719 6.02441C13.6221 6.05078 13.5752 6.07715 13.5254 6.10645C12.8779 6.4668 12.2275 6.82422 11.5801 7.18457C11.3633 7.30469 11.1494 7.4248 10.9326 7.54492C10.7275 7.65918 10.4814 7.58887 10.3555 7.41895C10.3467 7.40723 10.3437 7.39551 10.3379 7.38379C10.3027 7.32227 10.2851 7.25195 10.2851 7.17285V0.285156H4.68652C4.18554 0.285156 3.67284 0.244141 3.18066 0.34375C2.23437 0.53418 1.39062 1.1875 0.971673 2.05469C0.740227 2.53223 0.640618 3.0332 0.640618 3.56348V19.1729C0.640618 19.627 0.602532 20.0986 0.655266 20.5498C0.772454 21.5459 1.32616 22.4541 2.18456 22.9785C2.70898 23.2979 3.30663 23.459 3.91894 23.459H15.834C15.8252 23.4297 15.8135 23.4092 15.8047 23.3916C15.7373 23.2598 15.6758 23.1397 15.6172 23.0107C15.5908 22.9551 15.5674 22.8936 15.5439 22.835C15.5439 22.832 15.541 22.8262 15.541 22.8232C15.541 22.8203 15.5381 22.8174 15.5381 22.8145C15.5293 22.7969 15.5234 22.7793 15.5176 22.7646C15.4971 22.7148 15.4766 22.668 15.456 22.6182C15.4502 22.6035 15.4443 22.5801 15.4385 22.5801H15.4414C15.4414 22.5801 15.4414 22.5742 15.4385 22.5713C15.418 22.5186 15.4004 22.4658 15.3828 22.416C15.3799 22.4072 15.3769 22.3955 15.374 22.3867C15.3682 22.3721 15.3652 22.3574 15.3594 22.3428C15.3506 22.3164 15.3418 22.293 15.333 22.2666C15.3242 22.2402 15.3154 22.2168 15.3096 22.1904C15.3037 22.1758 15.3008 22.1582 15.2949 22.1436C15.2832 22.1084 15.2744 22.0703 15.2627 22.0352C15.2598 22.0205 15.2539 22.0029 15.251 21.9883C15.248 21.9795 15.2451 21.9736 15.2451 21.9648C15.2422 21.9531 15.2393 21.9385 15.2334 21.9268C15.2334 21.9238 15.2305 21.918 15.2305 21.915C15.2305 21.9121 15.2275 21.9063 15.2275 21.9033C15.2275 21.9004 15.2246 21.8945 15.2246 21.8916C15.2217 21.874 15.2158 21.8594 15.2129 21.8418C15.21 21.8242 15.2041 21.8096 15.2012 21.792C15.1953 21.7627 15.1865 21.7363 15.1807 21.707C15.1807 21.7041 15.1807 21.7012 15.1777 21.6982C15.1719 21.6777 15.1689 21.6572 15.1631 21.6338C15.1543 21.5986 15.1484 21.5635 15.1396 21.5283C15.1338 21.4961 15.1279 21.4668 15.1221 21.4346C15.1162 21.4082 15.1133 21.3848 15.1074 21.3584C15.1045 21.3408 15.1016 21.3262 15.0986 21.3086C15.0957 21.291 15.0928 21.2764 15.0898 21.2588C15.0898 21.2529 15.0869 21.25 15.0869 21.2441C15.084 21.2324 15.084 21.2207 15.081 21.209C15.081 21.2061 15.081 21.2061 15.081 21.2031C15.0752 21.1797 15.0723 21.1533 15.0693 21.1299C15.0693 21.127 15.081 21.127 15.081 21.124C15.0664 21.0186 15.0547 20.9131 15.0547 20.8076V20.8047C15.0547 20.7988 15.0576 20.793 15.0547 20.7871C15.0547 20.7695 15.0547 20.752 15.0547 20.7344V20.582C15.0547 20.5762 15.043 20.5674 15.04 20.5615C15.04 20.5557 15.0342 20.5527 15.0312 20.5469C15.0283 20.5352 15.0225 20.5205 15.0225 20.5088C15.0225 20.4854 15.0195 20.4648 15.0195 20.4414C15.0137 20.2656 15.0195 20.0869 15.0254 19.9111C15.0254 19.9082 15.04 19.9023 15.04 19.8994C15.04 19.8994 15.0518 19.8994 15.0518 19.8965C15.0518 19.8789 15.04 19.8613 15.043 19.8467C15.043 19.835 15.0488 19.8203 15.0488 19.8086C15.0488 19.8027 15.0518 19.7998 15.0518 19.7939V19.75C15.0518 19.7236 15.0518 19.6973 15.0547 19.6738L15.0518 19.6709V19.6826H15.0283L15.0254 19.6768L15.0371 19.6738C15.04 19.6387 15.0518 19.6035 15.0518 19.5684V19.5508C15.0518 19.5449 15.04 19.542 15.04 19.5361C15.04 19.5332 15.0342 19.5303 15.0371 19.5273L15.0342 19.5244V19.5215C15.0342 19.5186 15.0342 19.5156 15.0342 19.5127C15.04 19.498 15.0459 19.4805 15.0518 19.4658V19.4629C15.0547 19.457 15.0547 19.4512 15.0547 19.4482C15.0547 19.4453 15.081 19.4453 15.081 19.4424C15.081 19.4395 15.1074 19.4395 15.1074 19.4365V19.4336C15.1074 19.4277 15.081 19.4248 15.081 19.4189C15.081 19.3838 15.0723 19.3486 15.0781 19.3164H15.0723H15.0664C15.0693 19.3018 15.0693 19.2842 15.0693 19.2695C15.0693 19.2666 15.0723 19.2607 15.0752 19.2578V19.2549H15.1045C15.1045 19.252 15.1045 19.252 15.1338 19.249V19.2461C15.1338 19.2432 15.1074 19.2402 15.1103 19.2373H15.1221C15.125 19.2344 15.1367 19.2314 15.1367 19.2285V19.2227V19.208V19.2051C15.1367 19.2021 15.1367 19.2021 15.1367 19.1992C15.1367 19.1992 15.1103 19.1992 15.1103 19.1963H15.0986C15.0986 19.1963 15.0928 19.1963 15.0928 19.1934C15.1016 19.1436 15.1045 19.0938 15.1133 19.0439C15.1133 19.0352 15.1133 19.0234 15.1162 19.0146C15.1191 19 15.1191 18.9854 15.1221 18.9707C15.125 18.9561 15.1279 18.9414 15.1309 18.9268C15.1367 18.9033 15.1396 18.877 15.1455 18.8535C15.1689 18.7305 15.1982 18.6104 15.2275 18.4902C15.2305 18.4756 15.2363 18.4609 15.2393 18.4434C15.2422 18.4346 15.2451 18.4258 15.248 18.4141C15.2598 18.3672 15.2744 18.3203 15.2891 18.2705C15.2949 18.2471 15.3008 18.2266 15.3096 18.2031C15.3242 18.1533 15.3389 18.1064 15.3564 18.0566V18.0537C15.3652 18.0303 15.3711 18.0068 15.3799 17.9834C15.3887 17.96 15.3945 17.9365 15.4033 17.9131C15.4121 17.8897 15.4209 17.8662 15.4297 17.8428C15.4385 17.8193 15.4473 17.7959 15.456 17.7725C15.4707 17.7373 15.4824 17.6992 15.4971 17.6641C15.5117 17.623 15.5293 17.582 15.5469 17.541C15.5615 17.5059 15.5762 17.4736 15.5908 17.4385C15.6084 17.3975 15.6289 17.3535 15.6494 17.3125C15.6611 17.2891 15.6728 17.2627 15.6846 17.2393C15.6875 17.2305 15.6934 17.2217 15.6963 17.2129C15.7109 17.1807 15.7285 17.1484 15.7432 17.1162C15.7519 17.1016 15.7578 17.084 15.7666 17.0693C15.7754 17.0518 15.7842 17.0342 15.793 17.0195C15.7988 17.0078 15.8047 16.999 15.8105 16.9873C15.8105 16.9844 15.8135 16.9844 15.8135 16.9814C15.8135 16.9814 15.8135 16.9785 15.8164 16.9785C15.8252 16.9609 15.834 16.9434 15.8428 16.9287C15.8516 16.9141 15.8574 16.9023 15.8662 16.8877C15.8809 16.8584 15.8984 16.8291 15.916 16.7998C15.9336 16.7676 15.9512 16.7383 15.9717 16.7061C15.9863 16.6826 16.001 16.6562 16.0156 16.6328C16.0156 16.6299 16.0185 16.6299 16.0185 16.627C16.0215 16.6211 16.0273 16.6152 16.0303 16.6094C16.0303 16.6064 16.0332 16.6064 16.0332 16.6064C16.0361 16.6035 16.0361 16.6006 16.0391 16.5977C16.0449 16.5918 16.0478 16.5859 16.0508 16.5801L16.0537 16.5771V16.5742C16.0537 16.5742 16.0537 16.5742 16.0537 16.5713V16.5684V16.5596C16.0537 16.5449 16.0742 16.5303 16.0859 16.5156L16.0889 16.5127C16.0947 16.5039 16.1006 16.4951 16.1064 16.4863C16.1094 16.4834 16.1094 16.4834 16.1094 16.4805L16.1123 16.4775C16.1152 16.4746 16.1152 16.4717 16.1182 16.4688C16.1211 16.4658 16.124 16.4629 16.124 16.46C16.124 16.457 16.1269 16.457 16.1269 16.457C16.1299 16.4541 16.1328 16.4482 16.1328 16.4453C16.1328 16.4424 16.1328 16.4424 16.1357 16.4424C16.1387 16.4395 16.1387 16.4365 16.1416 16.4336L16.1445 16.4365V16.4395V16.4336C16.1445 16.4307 16.1475 16.4277 16.1504 16.4248C16.1562 16.416 16.1592 16.4072 16.165 16.4014L16.168 16.3984C16.168 16.3984 16.168 16.3955 16.1709 16.3955H16.1973C16.2002 16.3926 16.2295 16.3896 16.2295 16.3838C16.2295 16.375 16.2148 16.3633 16.2236 16.3516C16.2236 16.3516 16.2119 16.3486 16.2148 16.3486C16.2148 16.3486 16.209 16.3457 16.209 16.3428L16.206 16.334C16.206 16.3311 16.2031 16.3223 16.2031 16.3223H16.2588V16.3428C16.2588 16.3398 16.2353 16.3398 16.2353 16.3398L16.2236 16.3369H16.2178C16.2178 16.3369 16.2148 16.3369 16.2148 16.334C16.2178 16.3281 16.2207 16.3252 16.2236 16.3193C16.2236 16.3193 16.2236 16.3193 16.2236 16.3164C16.2236 16.3164 16.2236 16.3135 16.2266 16.3135C16.2295 16.3105 16.2324 16.3076 16.2353 16.3047C16.2529 16.2812 16.2705 16.2578 16.2881 16.2344C16.3232 16.1846 16.3613 16.1348 16.3965 16.0879C16.4053 16.0791 16.4111 16.0674 16.4199 16.0586C16.4463 16.0234 16.4726 15.9912 16.499 15.959C16.5078 15.9502 16.5137 15.9414 16.5195 15.9326C16.6016 15.833 16.6836 15.7363 16.7685 15.6396C16.7861 15.6221 16.8008 15.6045 16.8184 15.5869C16.8301 15.5752 16.8418 15.5635 16.8535 15.5488C16.8652 15.5342 16.8769 15.5254 16.8887 15.5137C16.9121 15.4873 16.9385 15.4609 16.9619 15.4375C16.9678 15.4287 16.9766 15.4229 16.9824 15.4141C16.9853 15.4111 16.9883 15.4053 16.9941 15.4023L17.0059 15.3906C17.0088 15.3877 17.0088 15.3877 17.0117 15.3848C17.0117 15.3848 17.0117 15.3848 17.0117 15.3818L17.0146 15.3789L17.0176 15.373C17.0176 15.3701 17.0264 15.3613 17.0322 15.3584H17.0586C17.0703 15.3291 17.082 15.3203 17.0937 15.3086V15.2998C17.1055 15.2998 17.1143 15.2822 17.126 15.2734C17.1318 15.2676 17.1377 15.2646 17.1435 15.2588C17.1465 15.2559 17.1494 15.2529 17.1553 15.25C17.1611 15.2441 17.1406 15.2383 17.1699 15.2324V15.2412H17.1728H17.1816C17.1846 15.2412 17.1875 15.2266 17.1904 15.2236V15.2207L17.1934 15.2148L17.1992 15.209C17.1992 15.209 17.1992 15.2061 17.2021 15.2061C17.2021 15.2061 17.2021 15.2061 17.2021 15.2031C17.2021 15.2002 17.2021 15.2002 17.2051 15.1973H17.2021V15.1943C17.2021 15.1943 17.2109 15.1943 17.2109 15.1914C17.2226 15.1797 17.2373 15.1709 17.249 15.1592C17.2695 15.1416 17.29 15.1211 17.3105 15.1035C17.3193 15.0947 17.331 15.0859 17.3428 15.0771C17.3486 15.0742 17.3545 15.0684 17.3574 15.0625C17.3633 15.0596 17.3662 15.0537 17.3721 15.0479C17.3809 15.0391 17.3896 15.0303 17.4014 15.0244L17.4043 15.0215C17.4307 14.998 17.46 14.9746 17.4893 14.9541C17.4922 14.9512 17.4951 14.9482 17.498 14.9453C17.5127 14.9336 17.5273 14.9219 17.542 14.9102V14.916C17.5508 14.916 17.5566 14.9014 17.5654 14.8955C17.5684 14.8926 17.5713 14.8896 17.5713 14.8896L17.5742 14.8867L17.5771 14.8838C17.583 14.8779 17.5918 14.8721 17.5976 14.8662C17.5976 14.8662 17.6006 14.8662 17.6006 14.8633C17.6064 14.8604 17.6094 14.8545 17.6152 14.8516C17.6182 14.8486 17.6416 14.8486 17.6416 14.8457C17.6416 14.8457 17.665 14.8457 17.665 14.8428C17.665 14.8428 17.6445 14.8428 17.6475 14.8398L17.6387 14.8369L17.6533 14.834H17.665C17.665 14.834 17.6475 14.8311 17.6504 14.8311C17.6855 14.8018 17.7119 14.7754 17.7471 14.749C17.75 14.7461 17.7471 14.7461 17.75 14.7432C17.7529 14.7402 17.75 14.7402 17.7529 14.7402V14.7373V14.7549V14.7695L17.7559 14.752V14.7432V14.7373C17.7588 14.7344 17.7588 14.7314 17.7617 14.7314C17.7646 14.7285 17.7676 14.7256 17.7705 14.7227C17.7764 14.7168 17.7822 14.7139 17.7851 14.708V14.7285V14.7432H17.7881C17.7881 14.7432 17.7881 14.7227 17.791 14.7227C17.7939 14.7197 17.8115 14.708 17.8144 14.7051C17.8174 14.7051 17.8057 14.6934 17.835 14.6904C17.835 14.6904 17.8232 14.6904 17.8262 14.6904H17.832H17.8379H17.8291C17.8613 14.667 17.8877 14.6436 17.9199 14.6201C17.9258 14.6172 17.9287 14.6113 17.9346 14.6084C17.958 14.5908 17.9873 14.5703 18.0137 14.5527H18.0107C18.0254 14.541 18.04 14.5352 18.0576 14.5264C18.0605 14.5264 18.0605 14.5234 18.0605 14.5234C18.0723 14.5176 18.0869 14.5088 18.0986 14.4971C18.0986 14.4971 18.1016 14.4971 18.1016 14.4941C18.1016 14.4941 18.1016 14.4941 18.1016 14.4912L18.1045 14.4854L18.1074 14.4795C18.1074 14.4795 18.1074 14.4795 18.1103 14.4795H18.1133C18.1162 14.4795 18.1162 14.4795 18.1191 14.4766C18.1191 14.4766 18.1191 14.4766 18.1221 14.4766C18.1426 14.459 18.1631 14.4414 18.1836 14.4297C18.1836 14.4297 18.1836 14.4209 18.1865 14.4209C18.1894 14.4209 18.1894 14.4268 18.1924 14.4268L18.1953 14.4297C18.1982 14.4268 18.2041 14.4268 18.207 14.4268V14.4238C18.207 14.4238 18.207 14.4238 18.21 14.4238H18.2129H18.2158C18.2187 14.4238 18.2187 14.4209 18.2187 14.4209V14.4238C18.2187 14.4209 18.2246 14.418 18.2305 14.415C18.2334 14.4121 18.2363 14.4092 18.2393 14.4092L18.2422 14.4062C18.2451 14.4062 18.2451 14.4033 18.2451 14.4033C18.248 14.4033 18.248 14.4004 18.251 14.4004C18.2539 14.4004 18.2539 14.3975 18.2568 14.3975L18.2598 14.3945L18.2627 14.3916C18.2627 14.3916 18.2656 14.3916 18.2656 14.3887C18.2685 14.3887 18.2685 14.3857 18.2715 14.3857C18.2773 14.3828 18.2832 14.3799 18.2861 14.377C18.292 14.374 18.2949 14.3711 18.3008 14.3682C18.3066 14.3652 18.3096 14.3623 18.3154 14.3594C18.3184 14.3594 18.3184 14.3564 18.3213 14.3564C18.3271 14.3535 18.3301 14.3506 18.3359 14.3477C18.3389 14.3477 18.3389 14.3447 18.3418 14.3447C18.3418 14.3418 18.3447 14.3418 18.3477 14.3418C18.3477 14.3418 18.3476 14.3389 18.3506 14.3389C18.3535 14.3389 18.3564 14.3389 18.3594 14.3389C18.3623 14.3359 18.3623 14.3359 18.3652 14.3359C18.3652 14.3359 18.3652 14.3359 18.3682 14.3359C18.3711 14.3359 18.3711 14.333 18.374 14.333H18.3769C18.3857 14.3301 18.3916 14.3271 18.4004 14.3242C18.4092 14.3213 18.418 14.3154 18.4268 14.3154C18.4297 14.2861 18.4355 14.3066 18.4385 14.3008V14.2979C18.4502 14.2891 18.4619 14.2803 18.4736 14.2773V14.2803V14.2861V14.2832C18.4736 14.2832 18.4736 14.2832 18.4736 14.2861V14.2891C18.4766 14.2891 18.4795 14.2861 18.4824 14.2832C18.4883 14.2803 18.4912 14.2744 18.4971 14.2715C18.5176 14.2598 18.5381 14.2451 18.5586 14.2334C18.5615 14.2305 18.5644 14.2275 18.5674 14.2275L18.5703 14.2246C18.5703 14.2246 18.5703 14.2246 18.5732 14.2246C18.5762 14.2217 18.5791 14.2217 18.585 14.2187C18.5908 14.2158 18.5996 14.21 18.6055 14.207C18.6113 14.2041 18.6143 14.2012 18.6201 14.1982C18.6201 14.1982 18.6406 14.1982 18.6377 14.1982C18.6348 14.1982 18.6553 14.1982 18.6553 14.1982H18.6377C18.6377 14.1982 18.6435 14.1982 18.6435 14.1953C18.7139 14.1572 18.8018 14.1221 18.8603 14.0869V14.1162H18.8428C18.8691 14.0869 18.8984 14.0723 18.9248 14.0576C18.9336 14.0547 18.9512 14.0459 18.957 14.043C18.96 14.04 18.9482 14.0371 18.9775 14.0342C18.9775 14.0342 18.9687 14.0312 18.9717 14.0312C18.9746 14.0283 18.9717 14.0283 18.9717 14.0254H18.9687C18.9717 14.0225 18.9746 14.0195 18.9775 14.0195C18.9805 14.0166 18.9863 14.0137 18.9893 14.0137C19.0039 14.0049 19.0185 13.999 19.0332 13.9932C19.0332 13.9932 19.0449 13.9932 19.0449 13.9902C19.0478 13.9873 19.0361 13.9873 19.0654 13.9844V13.9375H19.0596C19.0684 13.9375 19.0742 13.9404 19.083 13.9375C19.083 13.9375 19.083 13.9404 19.0859 13.9375C19.0889 13.9375 19.0918 13.9375 19.0918 13.9375C19.0976 13.9346 19.1006 13.9346 19.1064 13.9316H19.1094C19.1152 13.9287 19.1182 13.9258 19.124 13.9229H19.1269C19.1416 13.9141 19.1445 13.9082 19.1592 13.9023L19.1504 13.9053V13.917C19.1504 13.9141 19.1738 13.9111 19.1768 13.9082V13.9053H19.1826C19.1826 13.9053 19.1475 13.9023 19.206 13.9023H19.1943V13.8994C19.1943 13.8965 19.1943 13.8936 19.1943 13.8936L19.1914 13.8848H19.1973H19.2002H19.2031C19.2031 13.8848 19.2031 13.8848 19.206 13.8848H19.209H19.2119H19.2148C19.2148 13.8848 19.2178 13.8877 19.2178 13.8848H19.2207C19.2236 13.8848 19.2236 13.8848 19.2236 13.8848C19.2236 13.8848 19.2236 13.8848 19.2266 13.8848C19.2266 13.8848 19.2266 13.8848 19.2295 13.8848V13.8818H19.2324C19.2324 13.8818 19.2324 13.8789 19.2353 13.8789C19.2383 13.8789 19.2383 13.8789 19.2383 13.876C19.2383 13.876 19.2412 13.876 19.2412 13.873C19.2412 13.873 19.2441 13.873 19.2441 13.8701C19.2471 13.8701 19.2471 13.8672 19.25 13.8672C19.2559 13.8643 19.2588 13.8613 19.2646 13.8613C19.2646 13.8613 19.2676 13.8613 19.2676 13.8584C19.2676 13.8584 19.2676 13.8584 19.2705 13.8584H19.2734C19.2793 13.8555 19.2822 13.8525 19.2881 13.8525H19.291H19.2939C19.2969 13.8525 19.2998 13.8525 19.3027 13.8525H19.3057C19.3086 13.8525 19.3115 13.8525 19.3144 13.8525L19.3174 13.8467C19.3262 13.8438 19.3379 13.8379 19.3496 13.832C19.3555 13.8291 19.3643 13.8262 19.373 13.8232C19.376 13.8232 19.3789 13.8203 19.3818 13.8203C19.3848 13.8203 19.3994 13.8174 19.3994 13.8174C19.4053 13.8145 19.3994 13.8115 19.4287 13.8086V13.8174V13.8203L19.417 13.8174L19.4111 13.8145L19.4082 13.8115C19.4082 13.8115 19.4053 13.8086 19.4023 13.8086H19.4141L19.4258 13.8057V13.8027H19.4199L19.4141 13.7939C19.4199 13.7939 19.4287 13.791 19.4346 13.7881L19.4375 13.791V13.7939H19.4404H19.4434C19.4521 13.7939 19.4609 13.7939 19.4697 13.791H19.4726C19.4756 13.7881 19.4873 13.7852 19.4902 13.7852C19.4932 13.7822 19.5078 13.7793 19.5078 13.7793L19.4873 13.7646V13.7705C19.4873 13.7705 19.4873 13.7705 19.4902 13.7705C19.5078 13.7705 19.4902 13.7676 19.4902 13.7676H19.4932H19.4961L19.499 13.7646C19.499 13.7646 19.499 13.7646 19.4961 13.7646C19.4961 13.7646 19.4961 13.7646 19.499 13.7646C19.499 13.7646 19.499 13.7646 19.5019 13.7646H19.5078H19.5107H19.5312C19.5312 13.7617 19.5283 13.7617 19.5312 13.7617C19.5342 13.7617 19.5312 13.7588 19.5371 13.7588C19.5371 13.7588 19.5371 13.7588 19.54 13.7588C19.5459 13.7559 19.5518 13.7529 19.5605 13.7529H19.5635C19.5664 13.7529 19.5693 13.75 19.5723 13.75C19.5752 13.75 19.581 13.7471 19.584 13.7471C19.5869 13.7471 19.5928 13.7441 19.5986 13.7441H19.6016C19.6045 13.7441 19.6074 13.7412 19.6103 13.7412C19.6133 13.7412 19.6133 13.7412 19.6162 13.7412C19.6191 13.7412 19.6221 13.7412 19.625 13.7412H19.6484V13.7295C19.6484 13.7295 19.6338 13.7412 19.6367 13.7412H19.6426C19.6426 13.7412 19.6426 13.7354 19.6426 13.7324C19.6426 13.7295 19.6455 13.7266 19.6455 13.7236C19.6484 13.7178 19.6484 13.7178 19.6514 13.7207C19.6543 13.7236 19.6543 13.7236 19.6572 13.7236C19.6601 13.7207 19.666 13.7178 19.6689 13.7148C19.6719 13.7119 19.6748 13.7148 19.6777 13.7119H19.6807H19.6836C19.6924 13.7119 19.7012 13.7119 19.71 13.7119C19.7275 13.6826 19.7422 13.6973 19.7598 13.6914C19.7656 13.6885 19.7685 13.6855 19.7744 13.6855C19.7803 13.6826 19.7832 13.6826 19.7891 13.6797C19.8154 13.6709 19.8447 13.6621 19.8711 13.6533C19.8828 13.6504 19.8945 13.6475 19.9062 13.6445H19.9092C19.9238 13.6387 19.9385 13.6357 19.956 13.6328C19.9766 13.627 19.9971 13.6211 20.0176 13.6152C20.0264 13.6123 20.0351 13.6094 20.0439 13.6094C20.0527 13.6064 20.0615 13.6035 20.0703 13.6006C20.0762 13.5977 20.082 13.5977 20.0908 13.5947C20.0967 13.5947 20.0996 13.5918 20.1055 13.5918C20.1113 13.5889 20.1172 13.5889 20.123 13.5859C20.126 13.5859 20.1289 13.583 20.1318 13.583C20.1465 13.5801 20.1641 13.5742 20.1787 13.5713C20.1816 13.5713 20.1846 13.5859 20.1875 13.5859C20.1934 13.583 20.1992 13.5977 20.2051 13.5977V13.5801L20.208 13.5684C20.2139 13.5684 20.2197 13.5625 20.2227 13.5625C20.2314 13.5596 20.2402 13.5566 20.249 13.5566C20.2637 13.5537 20.2754 13.5508 20.29 13.5479C20.293 13.5479 20.2959 13.5449 20.2988 13.5449C20.3252 13.5391 20.3486 13.5332 20.375 13.5273C20.3867 13.5244 20.3984 13.5215 20.4101 13.5215C20.4277 13.5186 20.4424 13.5156 20.46 13.5098C20.4893 13.5039 20.5156 13.498 20.5449 13.4922C20.5625 13.4893 20.5801 13.4863 20.5976 13.4834C20.6064 13.4805 20.6182 13.4805 20.6269 13.4775C20.6357 13.4746 20.6475 13.4746 20.6562 13.4717C20.6738 13.4687 20.6914 13.4658 20.7119 13.4629C20.7148 13.4629 20.7207 13.4629 20.7236 13.46C20.7441 13.457 20.7646 13.4541 20.7851 13.4512C20.791 13.4512 20.7998 13.4482 20.8057 13.4482C20.8291 13.4453 20.8555 13.4395 20.8789 13.4365C20.8877 13.4336 20.8994 13.4336 20.9111 13.4336C20.9199 13.4307 20.9316 13.4307 20.9404 13.4307C20.9492 13.4307 20.958 13.4277 20.9668 13.4277C20.9844 13.4248 21.0049 13.4219 21.0225 13.4219C21.0459 13.4189 21.0693 13.416 21.0928 13.4131C21.1016 13.4131 21.1074 13.4102 21.1162 13.4102C21.1221 13.4102 21.1279 13.4102 21.1338 13.4072C21.1455 13.4072 21.1572 13.4043 21.1689 13.4043C21.1719 13.4043 21.1719 13.4043 21.1748 13.4043C21.1894 13.4014 21.207 13.4014 21.2217 13.4014C21.2363 13.4014 21.248 13.3984 21.2627 13.3984C21.2656 13.3984 21.2715 13.3984 21.2744 13.3984C21.2803 13.3984 21.2832 13.3984 21.2891 13.3984C21.3096 13.3955 21.3301 13.3955 21.3476 13.3955C21.3682 13.3926 21.3916 13.3926 21.4121 13.3926C21.4209 13.3926 21.4268 13.3926 21.4355 13.3896C21.4502 13.3896 21.4619 13.3867 21.4766 13.3867C21.4824 13.3867 21.4883 13.3867 21.4941 13.3867C21.6875 13.3779 21.8809 13.375 22.0742 13.3838C22.083 13.3838 22.0889 13.3838 22.0977 13.3838C22.1182 13.3838 22.1357 13.3867 22.1562 13.3867C22.165 13.3867 22.1738 13.3867 22.1826 13.3867C22.1855 13.3867 22.1885 13.3867 22.1914 13.3867C22.1943 13.3867 22.1973 13.3867 22.2002 13.3867C22.206 13.3867 22.2119 13.3867 22.2207 13.3867C22.2236 13.3867 22.2266 13.3867 22.2295 13.3867C22.2324 13.3867 22.2353 13.3867 22.2383 13.3867C22.2441 13.3867 22.25 13.3867 22.2588 13.3867C22.2734 13.3867 22.2881 13.3896 22.3027 13.3896C22.3174 13.3896 22.332 13.3926 22.3467 13.3926C22.373 13.3955 22.3965 13.3984 22.4199 13.4014C22.4228 13.4014 22.4258 13.4131 22.4287 13.4131C22.4346 13.4131 22.4404 13.4219 22.4463 13.4219H22.5195C22.5723 13.4219 22.625 13.4248 22.6777 13.4336C22.7041 13.4365 22.7305 13.4365 22.7568 13.4395C22.7832 13.4424 22.8096 13.4453 22.8359 13.4482C22.9414 13.4629 23.0469 13.4805 23.1523 13.501C23.1553 13.501 23.1582 13.501 23.1641 13.5039C23.1846 13.5068 23.2051 13.5127 23.2256 13.5156C23.2549 13.5215 23.2842 13.5273 23.3135 13.5332C23.331 13.5361 23.3516 13.542 23.3691 13.5449C23.3809 13.5479 23.3926 13.5508 23.4043 13.5537C23.4336 13.5596 23.46 13.5684 23.4893 13.5742C23.6211 13.6064 23.7529 13.6445 23.8848 13.6855C23.9111 13.6943 23.9434 13.7031 23.9697 13.7119C24.0019 13.7207 24.0342 13.7324 24.0664 13.7441C24.0723 13.7471 24.081 13.75 24.0869 13.75C24.1367 13.7676 24.1865 13.7852 24.2363 13.8057C24.2598 13.8145 24.2861 13.8232 24.3096 13.835C24.3506 13.8496 24.3887 13.8672 24.4297 13.8848C24.4414 13.8906 24.4531 13.8936 24.4678 13.8994C24.4853 13.9053 24.5 13.9141 24.5176 13.9199C24.541 13.9287 24.585 13.9404 24.6084 13.9492C24.8193 14.043 25.0215 14.1484 25.2559 14.2627V14.2656C25.2559 14.2803 25.2793 14.2949 25.3027 14.3096H25.2939H25.291H25.2881C25.2939 14.3125 25.2969 14.3154 25.2998 14.3184C25.3027 14.3213 25.3057 14.3242 25.3115 14.3271C25.335 14.3418 25.3613 14.3564 25.3848 14.374C25.3877 14.374 25.3877 14.377 25.3906 14.377C25.3965 14.3799 25.4023 14.3828 25.4082 14.3857C25.4287 14.4004 25.4521 14.4121 25.4726 14.4268V14.4326V14.4297H25.4756C25.4756 14.4297 25.4785 14.4297 25.4785 14.4326C25.4814 14.4355 25.4844 14.4355 25.4873 14.4385C25.4873 14.4385 25.4902 14.4385 25.4902 14.4414C25.4932 14.4414 25.4932 14.4443 25.4961 14.4443H25.499C25.5078 14.4502 25.5137 14.4531 25.5225 14.459C25.54 14.4707 25.5576 14.4824 25.5752 14.4941C25.5928 14.5059 25.6103 14.5176 25.6279 14.5293L25.6309 14.5322C25.6338 14.5352 25.6367 14.5381 25.6396 14.541C25.7832 14.6377 25.9355 14.7432 26.0703 14.8516C26.0762 14.8545 26.0703 14.8604 26.0996 14.8633V4.96973C26.1289 4.48047 26.1465 3.99121 26.1289 3.50195ZM3.95995 14.9629H6.85742C7.2207 14.9629 7.49023 15.2559 7.5078 15.6074C7.52245 15.959 7.19726 16.252 6.85742 16.252H3.95995C3.59667 16.252 3.32714 15.959 3.30956 15.6074C3.29491 15.2559 3.62011 14.9629 3.95995 14.9629ZM11.0117 19.5625H3.95995C3.59667 19.5625 3.32714 19.2695 3.30956 18.918C3.29491 18.5664 3.62011 18.2734 3.95995 18.2734H11.0117C11.375 18.2734 11.6445 18.5664 11.6621 18.918C11.6768 19.2695 11.3516 19.5625 11.0117 19.5625Z" fill="#5199FF"/>
</svg>
