<svg width="30" height="30" viewBox="0 0 30 30" fill="none" xmlns="http://www.w3.org/2000/svg">
<g id="orders 1" clip-path="url(#clip0_7_1696)">
<path id="Vector" d="M18.0063 0V12.2833C18.0174 12.3729 18 12.4638 17.9564 12.5429C17.9128 12.6219 17.8453 12.6852 17.7636 12.7236C17.6818 12.7621 17.5901 12.7736 17.5013 12.7568C17.4126 12.7399 17.3315 12.6954 17.2696 12.6296L14.1217 9.26758C14.0833 9.22134 14.0352 9.18414 13.9808 9.1586C13.9264 9.13307 13.867 9.11983 13.8069 9.11983C13.7468 9.11983 13.6874 9.13307 13.633 9.1586C13.5786 9.18414 13.5305 9.22134 13.4921 9.26758L10.3441 12.6296C10.2823 12.6954 10.2012 12.7399 10.1125 12.7568C10.0237 12.7736 9.93196 12.7621 9.85024 12.7236C9.76851 12.6852 9.70103 12.6219 9.65743 12.5429C9.61384 12.4638 9.59637 12.3729 9.60753 12.2833V0H18.0063Z" fill="#FEC53D"/>
<path id="Vector_2" d="M24.3211 0H19.914V16.0986C19.9173 16.2248 19.8826 16.349 19.8145 16.4552C19.7463 16.5613 19.6479 16.6446 19.5318 16.6941C19.4158 16.7437 19.2875 16.7572 19.1637 16.733C19.0399 16.7087 18.9262 16.6479 18.8374 16.5582L14.2603 12.1511C14.1426 12.0357 13.9844 11.9711 13.8196 11.9711C13.6548 11.9711 13.4965 12.0357 13.3789 12.1511L8.80173 16.5582C8.71292 16.6479 8.59924 16.7087 8.47542 16.733C8.3516 16.7572 8.22335 16.7437 8.10732 16.6941C7.99128 16.6446 7.8928 16.5613 7.82465 16.4552C7.7565 16.349 7.72183 16.2248 7.72513 16.0986V0H5.67266C4.16986 0 2.72861 0.596985 1.66597 1.65963C0.603333 2.72227 0.00634766 4.16352 0.00634766 5.66632V24.3148C0.00634766 25.8176 0.603333 27.2588 1.66597 28.3215C2.72861 29.3841 4.16986 29.9811 5.67266 29.9811H24.3211C25.8239 29.9811 27.2652 29.3841 28.3278 28.3215C29.3905 27.2588 29.9875 25.8176 29.9875 24.3148V5.67261C29.9883 4.92797 29.8423 4.19047 29.5579 3.50227C29.2736 2.81408 28.8563 2.18868 28.3301 1.66185C27.8038 1.13502 27.1789 0.717077 26.491 0.431924C25.8031 0.146772 25.0658 -4.59654e-07 24.3211 0ZM20.4051 26.6632H5.9245C5.67403 26.6632 5.43383 26.5637 5.25672 26.3866C5.07961 26.2095 4.98011 25.9692 4.98011 25.7188C4.98011 25.4683 5.07961 25.2281 5.25672 25.051C5.43383 24.8739 5.67403 24.7744 5.9245 24.7744H20.4051C20.6556 24.7744 20.8958 24.8739 21.0729 25.051C21.25 25.2281 21.3495 25.4683 21.3495 25.7188C21.3495 25.9692 21.25 26.2095 21.0729 26.3866C20.8958 26.5637 20.6556 26.6632 20.4051 26.6632ZM25.6685 22.256H5.91191C5.66144 22.256 5.42123 22.1565 5.24413 21.9794C5.06702 21.8023 4.96752 21.5621 4.96752 21.3116C4.96752 21.0612 5.06702 20.821 5.24413 20.6439C5.42123 20.4668 5.66144 20.3673 5.91191 20.3673H25.6685C25.9189 20.3673 26.1591 20.4668 26.3363 20.6439C26.5134 20.821 26.6129 21.0612 26.6129 21.3116C26.6129 21.5621 26.5134 21.8023 26.3363 21.9794C26.1591 22.1565 25.9189 22.256 25.6685 22.256Z" fill="#FEC53D"/>
</g>
<defs>
<clipPath id="clip0_7_1696">
<rect width="30" height="30" fill="white"/>
</clipPath>
</defs>
</svg>
